<?xml version="1.0" encoding="UTF-8" standalone="no"?>
<!-- Created with Inkscape (http://www.inkscape.org/) -->

<svg
   xmlns:dc="http://purl.org/dc/elements/1.1/"
   xmlns:cc="http://creativecommons.org/ns#"
   xmlns:rdf="http://www.w3.org/1999/02/22-rdf-syntax-ns#"
   xmlns:svg="http://www.w3.org/2000/svg"
   xmlns="http://www.w3.org/2000/svg"
   xmlns:sodipodi="http://sodipodi.sourceforge.net/DTD/sodipodi-0.dtd"
   xmlns:inkscape="http://www.inkscape.org/namespaces/inkscape"
   width="160mm"
   height="150mm"
   viewBox="0 0 160 150"
   version="1.1"
   id="svg8"
   inkscape:version="0.92.2 2405546, 2018-03-11"
   sodipodi:docname="drawing.svg">
  <sodipodi:namedview
     id="base"
     pagecolor="#ffffff"
     bordercolor="#666666"
     borderopacity="1.0"
     inkscape:pageopacity="0.0"
     inkscape:pageshadow="2"
     inkscape:zoom="1"
     inkscape:cx="279.8906"
     inkscape:cy="292.05101"
     inkscape:document-units="mm"
     inkscape:current-layer="layer1"
     showgrid="false"
     showguides="false"
     inkscape:guide-bbox="true"
     inkscape:snap-smooth-nodes="true"
     inkscape:object-paths="false"
     inkscape:snap-page="false"
     inkscape:snap-grids="false"
     inkscape:window-width="1362"
     inkscape:window-height="745"
     inkscape:window-x="0"
     inkscape:window-y="0"
     inkscape:window-maximized="0">
    <sodipodi:guide
       position="68.955538,113.58955"
       orientation="0,1"
       id="guide4518"
       inkscape:locked="false" />
    <sodipodi:guide
       position="82.776784,246.44048"
       orientation="0,1"
       id="guide4520"
       inkscape:locked="false" />
    <sodipodi:guide
       position="71.815475,130.02381"
       orientation="0,1"
       id="guide4522"
       inkscape:locked="false" />
    <inkscape:grid
       type="xygrid"
       id="grid4991" />
  </sodipodi:namedview>
  <defs
     id="defs2" />
  <metadata
     id="metadata5">
    <rdf:RDF>
      <cc:Work
         rdf:about="">
        <dc:format>image/svg+xml</dc:format>
        <dc:type
           rdf:resource="http://purl.org/dc/dcmitype/StillImage" />
        <dc:title />
      </cc:Work>
    </rdf:RDF>
  </metadata>
  <g
     transform="translate(0,-147)"
     inkscape:label="Layer 1"
     inkscape:groupmode="layer"
     id="layer1">
    <rect
       style="opacity:1;fill:#20ce2f;fill-opacity:0.29493088;fill-rule:evenodd;stroke:none;stroke-width:1.06335819;stroke-linecap:butt;stroke-miterlimit:4;stroke-dasharray:none;stroke-opacity:1"
       id="rect2778"
       width="66.364029"
       height="83.015785"
       x="96.596107"
       y="144.37561" />
    <path
       sodipodi:nodetypes="cccscccccccccsccccscccccccsc"
       inkscape:connector-curvature="0"
       d="m 44.154208,183.37621 -0.557442,83.13133 c 0,0 0.530569,17.009 9.601999,16.63103 h 28.195693 c 9.89258,0 9.601483,-16.63103 9.601483,-16.63103 l -0.774378,-77.84117 z m 0,0 c 0.385853,-1.3e-4 2.346603,0.45071 3.118303,0.94031 0.771702,0.48961 1.543402,1.17821 2.315104,1.87089 0.771702,0.69268 1.543402,1.3809 2.315104,1.87089 0.771702,0.48999 1.543405,0.77467 2.315104,0.77495 0.771702,2.6e-4 1.543405,-0.28535 2.315104,-0.77495 0.771703,-0.48961 1.543405,-1.17821 2.315104,-1.87089 0.771703,-0.69268 1.543405,-1.3809 2.315105,-1.87089 0.771702,-0.48999 1.543404,-0.77467 2.315104,-0.77494 0.771702,-2.7e-4 1.543404,0.28534 2.315104,0.77494 0.771702,0.48961 1.543404,1.17821 2.315104,1.87089 0.771702,0.69268 1.543405,1.3809 2.315104,1.87089 0.771702,0.48999 1.543405,0.77467 2.315104,0.77495 0.771703,2.6e-4 1.543405,-0.28535 2.315104,-0.77495 0.771703,-0.48961 1.543405,-1.17821 2.315107,-1.87089 0.7717,-0.69268 1.543402,-1.3809 2.315102,-1.87089 0.771702,-0.48999 1.543404,-0.77467 2.315104,-0.77494 0.771702,-2.7e-4 1.543404,0.28534 2.315104,0.77494 0.771702,0.48961 1.543404,1.17821 2.315104,1.87089 0.771702,0.69268 1.543405,1.3809 2.315104,1.87089 0.441725,0.28047 1.072698,0.54252 1.277178,0.60807"
       style="opacity:1;fill:#00bbff;fill-opacity:0.84722218;fill-rule:evenodd;stroke:none;stroke-width:1.32266259;stroke-linecap:round;stroke-miterlimit:4;stroke-dasharray:none;stroke-opacity:1"
       id="rect5232" />
    <path
       style="fill:none;fill-opacity:1;fill-rule:evenodd;stroke:#b4b4b4;stroke-width:2;stroke-linecap:butt;stroke-linejoin:miter;stroke-miterlimit:4;stroke-dasharray:none;stroke-opacity:1"
       d="m 43.596691,150.09069 v 133.04762 -16.63095 c 0,0 0.530456,17.00893 9.601885,16.63095 h 28.195736 c 9.892584,0 9.601882,-16.63095 9.601882,-16.63095 v 16.63095 -94.4849 -0.0238 -38.53895"
       id="path4524"
       inkscape:connector-curvature="0"
       sodipodi:nodetypes="cccccccccc" />
    <path
       style="fill:none;fill-rule:evenodd;stroke:#787878;stroke-width:1;stroke-linecap:butt;stroke-linejoin:miter;stroke-miterlimit:4;stroke-dasharray:none;stroke-opacity:1"
       d="M 47.138746,282.94444 V 266.50736"
       id="path4526"
       inkscape:connector-curvature="0" />
    <path
       style="fill:none;fill-rule:evenodd;stroke:#787878;stroke-width:1;stroke-linecap:butt;stroke-linejoin:miter;stroke-miterlimit:4;stroke-dasharray:none;stroke-opacity:1"
       d="m 87.717859,266.50736 v 16.43426"
       id="path4528"
       inkscape:connector-curvature="0" />
    <path
       style="fill:none;fill-rule:evenodd;stroke:#000000;stroke-width:1;stroke-linecap:butt;stroke-linejoin:miter;stroke-miterlimit:4;stroke-dasharray:none;stroke-opacity:1"
       d="m 87.717859,266.50736 1.870884,-6.55092 V 150.09069"
       id="path4530"
       inkscape:connector-curvature="0" />
    <path
       style="fill:none;fill-rule:evenodd;stroke:#00a200;stroke-width:1;stroke-linecap:butt;stroke-linejoin:miter;stroke-miterlimit:4;stroke-dasharray:none;stroke-opacity:1"
       d="m 47.422228,266.50736 -2.030149,-7.55952 0.02154,-108.85715"
       id="path4532"
       inkscape:connector-curvature="0"
       sodipodi:nodetypes="ccc" />
    <path
       style="fill:none;fill-rule:evenodd;stroke:#cb6d51;stroke-width:0.40000001;stroke-linecap:butt;stroke-linejoin:miter;stroke-miterlimit:4;stroke-dasharray:none;stroke-opacity:1"
       d="m 47.422228,266.50736 -2.030149,-7.55952 0.02154,-108.85715"
       id="path4532-3"
       inkscape:connector-curvature="0"
       sodipodi:nodetypes="ccc" />
    <text
       xml:space="preserve"
       style="font-style:normal;font-weight:normal;font-size:10.58333302px;line-height:6.61458302px;font-family:sans-serif;letter-spacing:0px;word-spacing:0px;fill:#000000;fill-opacity:1;stroke:none;stroke-width:0.26458332px;stroke-linecap:butt;stroke-linejoin:miter;stroke-opacity:1"
       x="50.967228"
       y="196.77075"
       id="text4551"><tspan
         sodipodi:role="line"
         x="50.967228"
         y="196.77075"
         style="stroke-width:0.26458332px"
         id="tspan4553">-</tspan><tspan
         sodipodi:role="line"
         x="50.967228"
         y="203.38533"
         style="stroke-width:0.26458332px"
         id="tspan4557" /></text>
    <text
       xml:space="preserve"
       style="font-style:normal;font-weight:normal;font-size:10.58333302px;line-height:6.61458349px;font-family:sans-serif;letter-spacing:0px;word-spacing:0px;fill:#000000;fill-opacity:1;stroke:none;stroke-width:0.26458332px;stroke-linecap:butt;stroke-linejoin:miter;stroke-opacity:1"
       x="65.121773"
       y="214.41087"
       id="text4551-6"><tspan
         sodipodi:role="line"
         x="65.121773"
         y="214.41087"
         style="stroke-width:0.26458332px"
         id="tspan4553-7">-</tspan><tspan
         sodipodi:role="line"
         x="65.121773"
         y="221.02545"
         style="stroke-width:0.26458332px"
         id="tspan4557-5" /></text>
    <text
       xml:space="preserve"
       style="font-style:normal;font-weight:normal;font-size:10.58333302px;line-height:6.61458349px;font-family:sans-serif;letter-spacing:0px;word-spacing:0px;fill:#000000;fill-opacity:1;stroke:none;stroke-width:0.26458332px;stroke-linecap:butt;stroke-linejoin:miter;stroke-opacity:1"
       x="56.61731"
       y="254.28737"
       id="text4551-2"><tspan
         sodipodi:role="line"
         x="56.61731"
         y="254.28737"
         style="stroke-width:0.26458332px"
         id="tspan4553-9">-</tspan><tspan
         sodipodi:role="line"
         x="56.61731"
         y="260.90195"
         style="stroke-width:0.26458332px"
         id="tspan4557-1" /></text>
    <text
       xml:space="preserve"
       style="font-style:normal;font-weight:normal;font-size:10.58333302px;line-height:6.61458349px;font-family:sans-serif;letter-spacing:0px;word-spacing:0px;fill:#000000;fill-opacity:1;stroke:none;stroke-width:0.26458332px;stroke-linecap:butt;stroke-linejoin:miter;stroke-opacity:1"
       x="74.202988"
       y="260.17627"
       id="text4551-27"><tspan
         sodipodi:role="line"
         x="74.202988"
         y="260.17627"
         style="stroke-width:0.26458332px"
         id="tspan4553-0">-</tspan><tspan
         sodipodi:role="line"
         x="74.202988"
         y="266.79086"
         style="stroke-width:0.26458332px"
         id="tspan4557-9" /></text>
    <text
       xml:space="preserve"
       style="font-style:normal;font-weight:normal;font-size:10.58333302px;line-height:6.61458349px;font-family:sans-serif;letter-spacing:0px;word-spacing:0px;fill:#000000;fill-opacity:1;stroke:none;stroke-width:0.26458332px;stroke-linecap:butt;stroke-linejoin:miter;stroke-opacity:1"
       x="67.75782"
       y="245.12143"
       id="text4551-6-3"><tspan
         sodipodi:role="line"
         x="67.75782"
         y="245.12143"
         style="stroke-width:0.26458332px"
         id="tspan4553-7-6">-</tspan><tspan
         sodipodi:role="line"
         x="67.75782"
         y="251.73601"
         style="stroke-width:0.26458332px"
         id="tspan4557-5-0" /></text>
    <text
       xml:space="preserve"
       style="font-style:normal;font-weight:normal;font-size:10.58333302px;line-height:6.61458349px;font-family:sans-serif;letter-spacing:0px;word-spacing:0px;fill:#000000;fill-opacity:1;stroke:none;stroke-width:0.26458332px;stroke-linecap:butt;stroke-linejoin:miter;stroke-opacity:1"
       x="74.372406"
       y="204.3"
       id="text4551-3-6"><tspan
         sodipodi:role="line"
         x="74.372406"
         y="204.3"
         style="stroke-width:0.26458332px"
         id="tspan4553-5-2">-</tspan><tspan
         sodipodi:role="line"
         x="74.372406"
         y="210.91458"
         style="stroke-width:0.26458332px"
         id="tspan4557-6-6" /></text>
    <text
       xml:space="preserve"
       style="font-style:normal;font-weight:normal;font-size:10.58333302px;line-height:6.61458349px;font-family:sans-serif;letter-spacing:0px;word-spacing:0px;fill:#000000;fill-opacity:1;stroke:none;stroke-width:0.26458332px;stroke-linecap:butt;stroke-linejoin:miter;stroke-opacity:1"
       x="65.693634"
       y="195.89003"
       id="text4551-6-36"><tspan
         sodipodi:role="line"
         x="65.693634"
         y="195.89003"
         style="stroke-width:0.26458332px"
         id="tspan4553-7-1">-</tspan><tspan
         sodipodi:role="line"
         x="65.693634"
         y="202.50461"
         style="stroke-width:0.26458332px"
         id="tspan4557-5-2" /></text>
    <text
       xml:space="preserve"
       style="font-style:normal;font-weight:normal;font-size:10.58333302px;line-height:6.61458349px;font-family:sans-serif;letter-spacing:0px;word-spacing:0px;fill:#000000;fill-opacity:1;stroke:none;stroke-width:0.26458332px;stroke-linecap:butt;stroke-linejoin:miter;stroke-opacity:1"
       x="53.598396"
       y="224.80522"
       id="text4551-2-9"><tspan
         sodipodi:role="line"
         x="53.598396"
         y="224.80522"
         style="stroke-width:0.26458332px"
         id="tspan4553-9-4">-</tspan><tspan
         sodipodi:role="line"
         x="53.598396"
         y="231.4198"
         style="stroke-width:0.26458332px"
         id="tspan4557-1-7" /></text>
    <text
       xml:space="preserve"
       style="font-style:normal;font-weight:normal;font-size:10.58333302px;line-height:6.61458349px;font-family:sans-serif;letter-spacing:0px;word-spacing:0px;fill:#000000;fill-opacity:1;stroke:none;stroke-width:0.26458332px;stroke-linecap:butt;stroke-linejoin:miter;stroke-opacity:1"
       x="58.662117"
       y="239.75284"
       id="text4551-6-3-8"><tspan
         sodipodi:role="line"
         x="58.662117"
         y="239.75284"
         style="stroke-width:0.26458332px"
         id="tspan4553-7-6-4">-</tspan><tspan
         sodipodi:role="line"
         x="58.662117"
         y="246.36742"
         style="stroke-width:0.26458332px"
         id="tspan4557-5-0-5" /></text>
    <text
       xml:space="preserve"
       style="font-style:normal;font-weight:normal;font-size:10.58333302px;line-height:6.61458349px;font-family:sans-serif;letter-spacing:0px;word-spacing:0px;fill:#000000;fill-opacity:1;stroke:none;stroke-width:0.26458332px;stroke-linecap:butt;stroke-linejoin:miter;stroke-opacity:1"
       x="78.350937"
       y="229.15195"
       id="text4551-6-3-1"><tspan
         sodipodi:role="line"
         x="78.350937"
         y="229.15195"
         style="stroke-width:0.26458332px"
         id="tspan4553-7-6-0">-</tspan><tspan
         sodipodi:role="line"
         x="78.350937"
         y="235.76653"
         style="stroke-width:0.26458332px"
         id="tspan4557-5-0-6" /></text>
    <text
       xml:space="preserve"
       style="font-style:normal;font-weight:normal;font-size:10.58333302px;line-height:6.61458349px;font-family:sans-serif;letter-spacing:0px;word-spacing:0px;fill:#000000;fill-opacity:1;stroke:none;stroke-width:0.26458332px;stroke-linecap:butt;stroke-linejoin:miter;stroke-opacity:1"
       x="55.672371"
       y="266.3826"
       id="text4551-6-3-3"><tspan
         sodipodi:role="line"
         x="55.672371"
         y="266.3826"
         style="stroke-width:0.26458332px"
         id="tspan4553-7-6-2">-</tspan><tspan
         sodipodi:role="line"
         x="55.672371"
         y="272.99719"
         style="stroke-width:0.26458332px"
         id="tspan4557-5-0-0" /></text>
    <text
       xml:space="preserve"
       style="font-style:normal;font-weight:normal;font-size:10.58333302px;line-height:6.61458349px;font-family:sans-serif;letter-spacing:0px;word-spacing:0px;fill:#000000;fill-opacity:1;stroke:none;stroke-width:0.26458332px;stroke-linecap:butt;stroke-linejoin:miter;stroke-opacity:1"
       x="68.724686"
       y="277.19339"
       id="text4551-6-3-6"><tspan
         sodipodi:role="line"
         x="68.724686"
         y="277.19339"
         style="stroke-width:0.26458332px"
         id="tspan4553-7-6-1">-</tspan><tspan
         sodipodi:role="line"
         x="68.724686"
         y="283.80798"
         style="stroke-width:0.26458332px"
         id="tspan4557-5-0-55" /></text>
    <text
       xml:space="preserve"
       style="font-style:normal;font-weight:normal;font-size:10.58333302px;line-height:6.61458349px;font-family:sans-serif;letter-spacing:0px;word-spacing:0px;fill:#000000;fill-opacity:1;stroke:none;stroke-width:0.26458332px;stroke-linecap:butt;stroke-linejoin:miter;stroke-opacity:1"
       x="70.968262"
       y="265.96616"
       id="text4551-6-3-8-4"><tspan
         sodipodi:role="line"
         x="70.968262"
         y="265.96616"
         style="stroke-width:0.26458332px"
         id="tspan4553-7-6-4-7">-</tspan><tspan
         sodipodi:role="line"
         x="70.968262"
         y="272.58075"
         style="stroke-width:0.26458332px"
         id="tspan4557-5-0-5-6" /></text>
    <circle
       style="opacity:1;fill:none;fill-opacity:1;fill-rule:evenodd;stroke:#000000;stroke-width:0.40000001;stroke-miterlimit:4;stroke-dasharray:none;stroke-opacity:1"
       id="path4834"
       cx="45.405754"
       cy="201.20726"
       r="1.3029389" />
    <circle
       style="opacity:1;fill:none;fill-opacity:1;fill-rule:evenodd;stroke:#000000;stroke-width:0.40000001;stroke-miterlimit:4;stroke-dasharray:none;stroke-opacity:1"
       id="path4836"
       cx="16.089626"
       cy="187.79367"
       r="14.967093" />
    <path
       style="fill:none;fill-rule:evenodd;stroke:#000000;stroke-width:0.40000001;stroke-linecap:butt;stroke-linejoin:miter;stroke-miterlimit:4;stroke-dasharray:none;stroke-opacity:1"
       d="m 27.879551,178.5735 18.601566,21.89807"
       id="path4838"
       inkscape:connector-curvature="0"
       sodipodi:nodetypes="cc" />
    <path
       style="fill:none;fill-rule:evenodd;stroke:#000000;stroke-width:0.40000001;stroke-linecap:butt;stroke-linejoin:miter;stroke-miterlimit:4;stroke-dasharray:none;stroke-opacity:1"
       d="m 16.089625,202.76076 29.316128,-0.25057"
       id="path4840"
       inkscape:connector-curvature="0" />
    <path
       inkscape:connector-curvature="0"
       style="opacity:1;fill:#000000;fill-opacity:0.28235294;fill-rule:evenodd;stroke:none;stroke-width:0.32621509;stroke-miterlimit:4;stroke-dasharray:none;stroke-opacity:0.28235294"
       d="m 9.4484635,174.38861 a 14.967093,14.967093 0 0 0 -8.1509237,11.2479 v 4.34754 a 14.967093,14.967093 0 0 0 8.1509237,11.20241 z"
       id="rect4842" />
    <path
       inkscape:connector-curvature="0"
       style="opacity:1;fill:#00a200;fill-opacity:1;fill-rule:evenodd;stroke:none;stroke-width:0.44338575;stroke-miterlimit:4;stroke-dasharray:none;stroke-opacity:0.28235294"
       d="m 16.089402,172.82644 a 14.967093,14.967093 0 0 0 -3.336231,0.39532 v 29.14809 a 14.967093,14.967093 0 0 0 3.336231,0.39068 14.967093,14.967093 0 0 0 9.545669,-3.45561 v -23.03218 a 14.967093,14.967093 0 0 0 -9.545669,-3.4463 z"
       id="rect4869" />
    <path
       inkscape:connector-curvature="0"
       style="opacity:1;fill:#cb6d51;fill-opacity:1;fill-rule:evenodd;stroke:none;stroke-width:0.44999999;stroke-miterlimit:4;stroke-dasharray:none;stroke-opacity:0.28235294"
       d="m 16.089402,172.82644 a 14.967093,14.967093 0 0 0 -1.69137,0.11472 v 29.71498 a 14.967093,14.967093 0 0 0 1.69137,0.10439 14.967093,14.967093 0 0 0 7.663614,-2.12959 v -25.67285 a 14.967093,14.967093 0 0 0 -7.663614,-2.13165 z"
       id="rect4886" />
    <text
       xml:space="preserve"
       style="font-style:normal;font-weight:normal;font-size:10.58333302px;line-height:6.61458302px;font-family:sans-serif;letter-spacing:0px;word-spacing:0px;fill:#000000;fill-opacity:1;stroke:none;stroke-width:0.26458332px;stroke-linecap:butt;stroke-linejoin:miter;stroke-opacity:1"
       x="14.285558"
       y="182.916"
       id="text4962"><tspan
         sodipodi:role="line"
         id="tspan4960"
         x="14.285558"
         y="182.916"
         style="stroke-width:0.26458332px">+</tspan><tspan
         sodipodi:role="line"
         x="14.285558"
         y="189.53058"
         style="stroke-width:0.26458332px"
         id="tspan4964" /></text>
    <text
       xml:space="preserve"
       style="font-style:normal;font-weight:normal;font-size:10.58333302px;line-height:6.61458349px;font-family:sans-serif;letter-spacing:0px;word-spacing:0px;fill:#000000;fill-opacity:1;stroke:none;stroke-width:0.26458332px;stroke-linecap:butt;stroke-linejoin:miter;stroke-opacity:1"
       x="14.328483"
       y="197.45895"
       id="text4962-8"><tspan
         sodipodi:role="line"
         id="tspan4960-4"
         x="14.328483"
         y="197.45895"
         style="stroke-width:0.26458332px">+</tspan><tspan
         sodipodi:role="line"
         x="14.328483"
         y="204.07353"
         style="stroke-width:0.26458332px"
         id="tspan4964-3" /></text>
    <path
       style="fill:none;fill-rule:evenodd;stroke:#000000;stroke-width:1;stroke-linecap:butt;stroke-linejoin:miter;stroke-miterlimit:4;stroke-dasharray:none;stroke-opacity:1"
       d="m 47.138745,282.94444 3.639495,7.7534 h 100.54167 l 5.29167,-7.75622 v -16.05628"
       id="path4993"
       inkscape:connector-curvature="0"
       sodipodi:nodetypes="ccccc" />
    <path
       style="fill:none;fill-rule:evenodd;stroke:#000000;stroke-width:1;stroke-linecap:butt;stroke-linejoin:miter;stroke-miterlimit:4;stroke-dasharray:none;stroke-opacity:1"
       d="m 87.717859,282.94162 4.070797,5.11038 h 10.394354 l 3.96875,-5.29166 V 256.302"
       id="path4995"
       inkscape:connector-curvature="0"
       sodipodi:nodetypes="ccccc" />
    <g
       id="g5009"
       transform="translate(-6.8860532,124.30346)">
      <path
         inkscape:connector-curvature="0"
         id="path4997"
         d="M 120.38542,119.71432 H 105.83333"
         style="fill:none;fill-rule:evenodd;stroke:#000000;stroke-width:0.9574272;stroke-linecap:butt;stroke-linejoin:miter;stroke-miterlimit:4;stroke-dasharray:none;stroke-opacity:1" />
      <path
         inkscape:connector-curvature="0"
         id="path4999"
         d="m 117.73958,123.68307 h -9.26041"
         style="fill:none;fill-rule:evenodd;stroke:#000000;stroke-width:0.98713332;stroke-linecap:butt;stroke-linejoin:miter;stroke-miterlimit:4;stroke-dasharray:none;stroke-opacity:1" />
      <path
         inkscape:connector-curvature="0"
         id="path5001"
         d="M 120.38542,127.65182 H 105.83333"
         style="fill:none;fill-rule:evenodd;stroke:#000000;stroke-width:0.9574272;stroke-linecap:butt;stroke-linejoin:miter;stroke-miterlimit:4;stroke-dasharray:none;stroke-opacity:1" />
      <path
         inkscape:connector-curvature="0"
         id="path5003"
         d="m 108.47917,131.62057 h 9.26041"
         style="fill:none;fill-rule:evenodd;stroke:#000000;stroke-width:0.98713332;stroke-linecap:butt;stroke-linejoin:miter;stroke-miterlimit:4;stroke-dasharray:none;stroke-opacity:1" />
    </g>
    <text
       transform="scale(1.3929681,0.71789152)"
       xml:space="preserve"
       style="font-style:normal;font-weight:normal;font-size:14.74224567px;line-height:9.21390438px;font-family:sans-serif;letter-spacing:0px;word-spacing:0px;fill:#000000;fill-opacity:1;stroke:none;stroke-width:0.36855614px;stroke-linecap:butt;stroke-linejoin:miter;stroke-opacity:1"
       x="77.369408"
       y="366.22379"
       id="text4551-27-1"><tspan
         sodipodi:role="line"
         x="77.369408"
         y="366.22379"
         style="stroke-width:0.36855614px"
         id="tspan4553-0-4">-</tspan><tspan
         sodipodi:role="line"
         x="77.369408"
         y="375.43768"
         style="stroke-width:0.36855614px"
         id="tspan4557-9-9" /></text>
    <path
       style="fill:none;fill-rule:evenodd;stroke:#000000;stroke-width:1;stroke-linecap:butt;stroke-linejoin:miter;stroke-miterlimit:4;stroke-dasharray:none;stroke-opacity:1"
       d="m 106.34074,272.177 h 6.61459 l 1.32291,-3.96875 2.64584,7.9375 2.64583,-7.9375 2.64583,7.9375 2.64583,-7.9375 2.64584,7.9375 2.64583,-7.9375 2.64584,7.9375 1.32291,-3.96875 h 3.96875"
       id="path5032"
       inkscape:connector-curvature="0"
       sodipodi:nodetypes="cccccccccc" />
    <path
       style="fill:none;fill-rule:evenodd;stroke:#000000;stroke-width:1;stroke-linecap:butt;stroke-linejoin:miter;stroke-miterlimit:4;stroke-dasharray:none;stroke-opacity:1"
       d="M 138.09074,261.59367 V 232.4895 h -31.75 v 11.90625"
       id="path5034"
       inkscape:connector-curvature="0"
       sodipodi:nodetypes="cccc" />
    <circle
       style="opacity:1;fill:#000000;fill-opacity:1;fill-rule:nonzero;stroke:#000000;stroke-width:2;stroke-linecap:square;stroke-linejoin:miter;stroke-miterlimit:4;stroke-dasharray:none;stroke-opacity:1"
       id="path5038"
       cx="138.09073"
       cy="272.177"
       r="0.47247034" />
    <circle
       style="opacity:1;fill:#000000;fill-opacity:1;fill-rule:evenodd;stroke:#000000;stroke-width:2;stroke-linecap:round;stroke-miterlimit:4;stroke-dasharray:none;stroke-opacity:1"
       id="path5038-2"
       cx="156.61157"
       cy="266.94202"
       r="0.47247037" />
    <circle
       style="opacity:1;fill:#000000;fill-opacity:1;fill-rule:nonzero;stroke:#000000;stroke-width:2;stroke-linecap:round;stroke-miterlimit:4;stroke-dasharray:none;stroke-opacity:1"
       id="path5038-0"
       cx="138.09073"
       cy="261.53696"
       r="0.47247037" />
    <path
       style="fill:none;fill-rule:evenodd;stroke:#000000;stroke-width:1;stroke-linecap:butt;stroke-linejoin:miter;stroke-miterlimit:4;stroke-dasharray:none;stroke-opacity:1"
       d="m 156.61158,266.88534 -18.52084,-5.29167"
       id="path5061"
       inkscape:connector-curvature="0"
       sodipodi:nodetypes="cc" />
    <text
       xml:space="preserve"
       style="font-style:normal;font-weight:normal;font-size:8.81944466px;line-height:6.61458349px;font-family:sans-serif;letter-spacing:0px;word-spacing:0px;fill:#000000;fill-opacity:1;stroke:none;stroke-width:0.26458332px;stroke-linecap:butt;stroke-linejoin:miter;stroke-opacity:1"
       x="107.40379"
       y="241.71449"
       id="text4551-27-1-8"><tspan
         sodipodi:role="line"
         x="107.40379"
         y="241.71449"
         style="font-size:8.81944466px;stroke-width:0.26458332px"
         id="tspan4553-0-4-9">+</tspan><tspan
         id="tspan5298"
         sodipodi:role="line"
         x="107.40379"
         y="248.32907"
         style="font-size:8.81944466px;stroke-width:0.26458332px" /><tspan
         sodipodi:role="line"
         x="107.40379"
         y="254.94366"
         style="font-size:8.81944466px;stroke-width:0.26458332px"
         id="tspan4557-9-9-2" /></text>
    <path
       inkscape:connector-curvature="0"
       id="path5337"
       d="m 110.05546,272.177 1.22221,10.76461 8.08705,10e-6"
       style="fill:none;fill-rule:evenodd;stroke:#000000;stroke-width:1;stroke-linecap:butt;stroke-linejoin:miter;stroke-miterlimit:4;stroke-dasharray:none;stroke-opacity:1" />
    <path
       inkscape:connector-curvature="0"
       id="path5339"
       d="m 137.61827,272.17701 -1.51621,10.76461 h -8.21575"
       style="fill:none;fill-rule:evenodd;stroke:#000000;stroke-width:1;stroke-linecap:butt;stroke-linejoin:miter;stroke-miterlimit:4;stroke-dasharray:none;stroke-opacity:1" />
    <circle
       r="4.2607965"
       cy="282.94162"
       cx="123.62552"
       id="path5341"
       style="opacity:1;fill:none;fill-opacity:1;fill-rule:nonzero;stroke:#000000;stroke-width:1;stroke-linecap:square;stroke-linejoin:miter;stroke-miterlimit:4;stroke-dasharray:none;stroke-opacity:1" />
    <text
       id="text5351"
       y="285.93533"
       x="121.35584"
       style="font-style:normal;font-weight:normal;font-size:7.05555534px;line-height:6.61458302px;font-family:sans-serif;letter-spacing:0px;word-spacing:0px;fill:#000000;fill-opacity:1;stroke:none;stroke-width:0.26458332px;stroke-linecap:butt;stroke-linejoin:miter;stroke-opacity:1"
       xml:space="preserve"><tspan
         id="tspan5353"
         style="font-size:7.05555534px;stroke-width:0.26458332px"
         y="285.93533"
         x="121.35584"
         sodipodi:role="line">V</tspan></text>
    <text
       id="text5397"
       y="259.76935"
       x="142.00031"
       style="font-style:normal;font-weight:normal;font-size:10.58333302px;line-height:6.61458302px;font-family:sans-serif;letter-spacing:0px;word-spacing:0px;fill:#000000;fill-opacity:1;stroke:none;stroke-width:0.26458332px;stroke-linecap:butt;stroke-linejoin:miter;stroke-opacity:1"
       xml:space="preserve"><tspan
         style="font-size:7.05555534px;stroke-width:0.26458332px"
         y="259.76935"
         x="142.00031"
         id="tspan5395"
         sodipodi:role="line">SW1</tspan></text>
    <path
       id="path2533"
       title="2.71828**(-x)"
       d="m 105.29167,167.50521 c 1.51515,6.06061 3.0303,11.0298 4.54545,15.2428 1.51516,4.21299 3.03031,7.6673 4.54546,10.59593 1.51515,2.92864 3.0303,5.32988 4.54545,7.36571 1.51516,2.03582 3.03031,3.70503 4.54546,5.12022 1.51515,1.4152 3.0303,2.57554 4.54545,3.5593 1.51515,0.98376 3.03031,1.79037 4.54546,2.47422 1.51515,0.68386 3.0303,1.24456 4.54545,1.71994 1.51515,0.47538 3.0303,0.86515 4.54546,1.19561 1.51515,0.33046 3.0303,0.6014 4.54545,0.83112 1.51515,0.22972 3.0303,0.41806 4.54546,0.57775 1.51515,0.15968 3.0303,0.29061 4.54545,0.40162"
       style="opacity:1;fill:none;fill-opacity:1;fill-rule:evenodd;stroke:#000000;stroke-width:0.75;stroke-linecap:butt;stroke-miterlimit:4;stroke-dasharray:none;stroke-opacity:1"
       inkscape:connector-curvature="0"
       sodipodi:nodetypes="cssssssssssc" />
    <path
       style="fill:none;fill-rule:evenodd;stroke:#000000;stroke-width:0.75;stroke-linecap:butt;stroke-linejoin:miter;stroke-miterlimit:4;stroke-dasharray:none;stroke-opacity:1"
       d="m 105.29167,167.50521 v 50 h 50"
       id="path2631"
       inkscape:connector-curvature="0"
       sodipodi:nodetypes="ccc" />
    <path
       style="fill:none;fill-rule:evenodd;stroke:#000000;stroke-width:0.74801099;stroke-linecap:butt;stroke-linejoin:miter;stroke-miterlimit:4;stroke-dasharray:none;stroke-opacity:1"
       d="m 105.29204,167.88656 1.99926,0.002"
       id="path2633"
       inkscape:connector-curvature="0" />
    <path
       style="fill:none;fill-rule:evenodd;stroke:#000000;stroke-width:0.74801099;stroke-linecap:butt;stroke-linejoin:miter;stroke-miterlimit:4;stroke-dasharray:none;stroke-opacity:1"
       d="m 105.29204,204.6292 1.99926,0.002"
       id="path2633-3"
       inkscape:connector-curvature="0" />
    <path
       style="fill:none;fill-rule:evenodd;stroke:#000000;stroke-width:0.74801099;stroke-linecap:butt;stroke-linejoin:miter;stroke-miterlimit:4;stroke-dasharray:none;stroke-opacity:1"
       d="m 105.29204,192.1292 1.99926,0.002"
       id="path2633-3-6"
       inkscape:connector-curvature="0" />
    <path
       style="fill:none;fill-rule:evenodd;stroke:#000000;stroke-width:0.74801099;stroke-linecap:butt;stroke-linejoin:miter;stroke-miterlimit:4;stroke-dasharray:none;stroke-opacity:1"
       d="m 105.29204,179.6292 1.99927,0.002"
       id="path2633-3-6-7"
       inkscape:connector-curvature="0" />
    <path
       style="fill:none;fill-rule:evenodd;stroke:#000000;stroke-width:0.74801099;stroke-linecap:butt;stroke-linejoin:miter;stroke-miterlimit:4;stroke-dasharray:none;stroke-opacity:1"
       d="m 118.16869,217.50521 0.002,-1.99927"
       id="path2633-5"
       inkscape:connector-curvature="0" />
    <path
       style="fill:none;fill-rule:evenodd;stroke:#000000;stroke-width:0.74801099;stroke-linecap:butt;stroke-linejoin:miter;stroke-miterlimit:4;stroke-dasharray:none;stroke-opacity:1"
       d="m 154.91133,217.50521 0.002,-1.99927"
       id="path2633-3-3"
       inkscape:connector-curvature="0" />
    <path
       style="fill:none;fill-rule:evenodd;stroke:#000000;stroke-width:0.74801099;stroke-linecap:butt;stroke-linejoin:miter;stroke-miterlimit:4;stroke-dasharray:none;stroke-opacity:1"
       d="m 142.41133,217.5052 0.002,-1.99925"
       id="path2633-3-6-5"
       inkscape:connector-curvature="0" />
    <path
       style="fill:none;fill-rule:evenodd;stroke:#000000;stroke-width:0.74801099;stroke-linecap:butt;stroke-linejoin:miter;stroke-miterlimit:4;stroke-dasharray:none;stroke-opacity:1"
       d="m 129.91133,217.50521 0.002,-1.99928"
       id="path2633-3-6-7-6"
       inkscape:connector-curvature="0" />
    <text
       xml:space="preserve"
       style="font-style:normal;font-weight:normal;font-size:8.8194437px;line-height:6.61458302px;font-family:sans-serif;letter-spacing:0px;word-spacing:0px;fill:#000000;fill-opacity:1;stroke:none;stroke-width:0.26458332px;stroke-linecap:butt;stroke-linejoin:miter;stroke-opacity:1"
       x="128.05832"
       y="225.16563"
       id="text2706"><tspan
         sodipodi:role="line"
         x="128.05832"
         y="225.16563"
         style="font-size:7.05555534px;stroke-width:0.26458332px"
         id="tspan2712">t</tspan></text>
    <text
       xml:space="preserve"
       style="font-style:normal;font-weight:normal;font-size:7.05555534px;line-height:6.61458349px;font-family:sans-serif;letter-spacing:0px;word-spacing:0px;fill:#000000;fill-opacity:1;stroke:none;stroke-width:0.26458332px;stroke-linecap:butt;stroke-linejoin:miter;stroke-opacity:1"
       x="98.535149"
       y="194.39525"
       id="text2706-2"><tspan
         sodipodi:role="line"
         x="98.535149"
         y="194.39525"
         style="font-size:7.05555534px;stroke-width:0.26458332px"
         id="tspan2734">V</tspan></text>
    <g
       aria-label="V(t)=V0e-t/RC"
       transform="rotate(1.0383278)"
       style="font-style:normal;font-weight:normal;font-size:8.8194437px;line-height:6.61458302px;font-family:sans-serif;letter-spacing:0px;word-spacing:0px;fill:#000000;fill-opacity:1;stroke:none;stroke-width:0.26458332px;stroke-linecap:butt;stroke-linejoin:miter;stroke-opacity:1"
       id="text2740">
      <path
         d="m 119.32792,184.42918 -1.9637,-5.14352 h 0.72691 l 1.62953,4.33048 1.63298,-4.33048 h 0.72347 l -1.96026,5.14352 z"
         style="font-size:7.05555534px;stroke-width:0.26458332px"
         id="path2780" />
      <path
         d="m 124.31987,179.07551 q -0.46165,0.79237 -0.68558,1.56751 -0.22393,0.77515 -0.22393,1.57097 0,0.79581 0.22393,1.57785 0.22738,0.77859 0.68558,1.56752 h -0.55122 q -0.51676,-0.8096 -0.77515,-1.59163 -0.25493,-0.78204 -0.25493,-1.55374 0,-0.76826 0.25493,-1.54685 0.25494,-0.77859 0.77515,-1.59163 z"
         style="font-size:7.05555534px;stroke-width:0.26458332px"
         id="path2782" />
      <path
         d="m 126.18022,179.47514 v 1.09554 h 1.30569 v 0.49265 h -1.30569 v 2.09461 q 0,0.47198 0.12747,0.60634 0.13091,0.13436 0.5271,0.13436 h 0.65112 v 0.53054 h -0.65112 q -0.73381,0 -1.01286,-0.27216 -0.27905,-0.27561 -0.27905,-0.99908 v -2.09461 h -0.46509 v -0.49265 h 0.46509 v -1.09554 z"
         style="font-size:7.05555534px;stroke-width:0.26458332px"
         id="path2784" />
      <path
         d="m 128.22316,179.07551 h 0.55121 q 0.51677,0.81304 0.77171,1.59163 0.25838,0.77859 0.25838,1.54685 0,0.7717 -0.25838,1.55374 -0.25494,0.78203 -0.77171,1.59163 h -0.55121 q 0.4582,-0.78893 0.68213,-1.56752 0.22737,-0.78204 0.22737,-1.57785 0,-0.79582 -0.22737,-1.57097 -0.22393,-0.77514 -0.68213,-1.56751 z"
         style="font-size:7.05555534px;stroke-width:0.26458332px"
         id="path2786" />
      <path
         d="m 131.16183,181.22525 h 4.41661 v 0.57877 h -4.41661 z m 0,1.40559 h 4.41661 v 0.58567 h -4.41661 z"
         style="font-size:7.05555534px;stroke-width:0.26458332px"
         id="path2788" />
      <path
         d="m 138.34485,184.42918 -1.96371,-5.14352 h 0.72692 l 1.62953,4.33048 1.63298,-4.33048 h 0.72347 l -1.96026,5.14352 z"
         style="font-size:7.05555534px;stroke-width:0.26458332px"
         id="path2790" />
      <path
         d="m 142.60695,182.79483 q -0.34933,0 -0.52624,0.34486 -0.17467,0.34261 -0.17467,1.03232 0,0.68747 0.17467,1.03232 0.17691,0.34262 0.52624,0.34262 0.35157,0 0.52624,-0.34262 0.1769,-0.34485 0.1769,-1.03232 0,-0.68971 -0.1769,-1.03232 -0.17467,-0.34486 -0.52624,-0.34486 z m 0,-0.35829 q 0.56207,0 0.85765,0.44562 0.29783,0.44339 0.29783,1.28985 0,0.84422 -0.29783,1.28984 -0.29558,0.44339 -0.85765,0.44339 -0.56207,0 -0.8599,-0.44339 -0.29559,-0.44562 -0.29559,-1.28984 0,-0.84646 0.29559,-1.28985 0.29783,-0.44562 0.8599,-0.44562 z"
         style="font-size:64.99999762%;baseline-shift:sub"
         id="path2792" />
      <path
         d="m 148.03452,182.34146 v 0.31005 h -2.91455 q 0.0413,0.65457 0.39274,0.99908 0.35485,0.34107 0.9853,0.34107 0.36518,0 0.70625,-0.0896 0.34451,-0.0896 0.68213,-0.26871 v 0.59944 q -0.34107,0.1447 -0.69936,0.22049 -0.35829,0.0758 -0.72691,0.0758 -0.92329,0 -1.46417,-0.53743 -0.53743,-0.53744 -0.53743,-1.45383 0,-0.9474 0.50987,-1.50206 0.51332,-0.55811 1.38148,-0.55811 0.77859,0 1.2299,0.50298 0.45475,0.49954 0.45475,1.36082 z m -0.63389,-0.18604 q -0.007,-0.52021 -0.29284,-0.83027 -0.28249,-0.31006 -0.75103,-0.31006 -0.53054,0 -0.85094,0.29973 -0.31694,0.29972 -0.36518,0.84405 z"
         style="font-size:7.05555534px;stroke-width:0.26458332px"
         id="path2794" />
      <path
         d="m 148.63397,180.16708 h 1.20699 v 0.36725 h -1.20699 z"
         style="font-size:64.99999762%;baseline-shift:super"
         id="path2796" />
      <path
         d="m 150.90687,178.38683 v 0.7121 h 0.8487 v 0.32022 h -0.8487 v 1.36151 q 0,0.30678 0.0829,0.39411 0.0851,0.0873 0.34261,0.0873 h 0.42323 v 0.34485 h -0.42323 q -0.47697,0 -0.65836,-0.1769 -0.18138,-0.17915 -0.18138,-0.6494 v -1.36151 h -0.30231 v -0.32022 h 0.30231 v -0.7121 z"
         style="font-size:64.99999762%;baseline-shift:super"
         id="path2798" />
      <path
         d="m 153.03198,178.26367 h 0.38068 l -1.16444,3.76876 h -0.38068 z"
         style="font-size:64.99999762%;baseline-shift:super"
         id="path2800" />
      <path
         d="m 155.45268,180.03944 q 0.14555,0.0493 0.28215,0.2105 0.13884,0.16123 0.27767,0.44338 l 0.45906,0.91364 h -0.48593 l -0.42771,-0.85765 q -0.16571,-0.3359 -0.32246,-0.44563 -0.15451,-0.10972 -0.42323,-0.10972 h -0.49265 v 1.413 h -0.45234 v -3.34329 h 1.02113 q 0.57326,0 0.85542,0.23961 0.28215,0.2396 0.28215,0.72329 0,0.31575 -0.1478,0.524 -0.14555,0.20826 -0.42546,0.28887 z m -1.1331,-1.40405 v 1.18684 h 0.56879 q 0.32694,0 0.49265,-0.15003 0.16795,-0.15228 0.16795,-0.44563 0,-0.29335 -0.16795,-0.44114 -0.16571,-0.15004 -0.49265,-0.15004 z"
         style="font-size:64.99999762%;baseline-shift:super"
         id="path2802" />
      <path
         d="m 159.34012,178.52119 v 0.47697 q -0.22841,-0.21273 -0.48817,-0.31798 -0.25752,-0.10525 -0.54863,-0.10525 -0.57326,0 -0.87781,0.35158 -0.30454,0.34933 -0.30454,1.01216 0,0.6606 0.30454,1.01217 0.30455,0.34934 0.87781,0.34934 0.29111,0 0.54863,-0.10525 0.25976,-0.10525 0.48817,-0.31798 v 0.47249 q -0.23736,0.16123 -0.50384,0.24185 -0.26424,0.0806 -0.55983,0.0806 -0.75913,0 -1.19579,-0.46354 -0.43667,-0.46577 -0.43667,-1.26969 0,-0.80615 0.43667,-1.26969 0.43666,-0.46577 1.19579,-0.46577 0.30007,0 0.56431,0.0806 0.26647,0.0784 0.49936,0.23737 z"
         style="font-size:64.99999762%;baseline-shift:super"
         id="path2804" />
    </g>
    <text
       id="text5397-1"
       y="265.43707"
       x="120.44571"
       style="font-style:normal;font-weight:normal;font-size:10.58333302px;line-height:6.61458349px;font-family:sans-serif;letter-spacing:0px;word-spacing:0px;fill:#000000;fill-opacity:1;stroke:none;stroke-width:0.26458332px;stroke-linecap:butt;stroke-linejoin:miter;stroke-opacity:1"
       xml:space="preserve"><tspan
         style="font-size:7.05555534px;stroke-width:0.26458332px"
         y="265.43707"
         x="120.44571"
         sodipodi:role="line"
         id="tspan2760">R1</tspan></text>
    <text
       xml:space="preserve"
       style="font-style:normal;font-weight:normal;font-size:8.8194437px;line-height:6.61458302px;font-family:sans-serif;letter-spacing:0px;word-spacing:0px;fill:#000000;fill-opacity:1;stroke:none;stroke-width:0.26458332px;stroke-linecap:butt;stroke-linejoin:miter;stroke-opacity:1"
       x="109.80208"
       y="155.18333"
       id="text2774"><tspan
         sodipodi:role="line"
         id="tspan2772"
         x="109.80208"
         y="155.18333"
         style="font-size:7.05555534px;stroke-width:0.26458332px">Capacitor</tspan><tspan
         sodipodi:role="line"
         x="109.80208"
         y="162.25612"
         style="font-size:7.05555534px;stroke-width:0.26458332px"
         id="tspan2776">Discharge</tspan></text>
  </g>
</svg>
