<svg xmlns="http://www.w3.org/2000/svg" width="110" height="135" version="1" viewBox="0 0 11480 14070"><g fill-opacity="0" stroke="#000" stroke-linecap="round" stroke-linejoin="round" stroke-width="0"><g fill="none" stroke-width="60"><path d="M930 12030v500h500l-500 500-500-500h500M590 13530l-40-30h-70l-80 30-40 40-30 50-20 100v70l20 90 30 50 40 50 80 20h40l70-20 30-30v-160H520M830 14000v-500l290 500v-500M1360 14000v-500h120l70 30 40 40 30 50 20 100v70l-20 90-30 50-40 50-70 20h-120"/></g></g><g fill-opacity="0" stroke="#000" stroke-linecap="round" stroke-linejoin="round" stroke-width="0"><g fill="none" stroke-width="60"><path d="M6733 9182a70 70 0 0 0-53-101M6730 9180a100 100 0 0 0 100 100M6830 9280a100 100 0 0 0 100-100M6930 8930a100 100 0 0 0-100-100M6830 8830a100 100 0 0 0-100 100M6730 8930a100 100 0 0 0 100 100M6830 9031a200 200 0 0 0 241-105"/></g><rect width="800" height="2000" x="60100" y="32000" fill="none" stroke-width="100" rx="0" transform="translate(-52570 -22970)"/><g fill="none" stroke-width="60"><path d="M6930 9180v-250M7230 9030v400l1400 1200v400"/></g><g fill-opacity="1" fill-rule="evenodd" stroke-width="60"><path d="M6930 11480v-900l-100 300h200l-100-300v100M7230 10580v900l-100-300h200l-100 300v-100"/></g><g fill="none" stroke-width="60"><path d="M7930 9030v-500M7930 11030v500M8970 9310h290M9120 9810v-500M9420 9810v-500M9420 9550h290M9710 9810v-500M10210 9810h-290M10070 9810v-500l-50 70-50 50-50 20M9310 10720h-290M9160 10720v-500l-40 70-50 50-50 20M9620 10220h40l50 30 30 20 20 50 20 90v120l-20 100-20 40-30 30-50 20h-40l-50-20-20-30-30-40-20-100v-120l20-90 30-50 20-20 50-30M10000 10720v-500M10050 10530l140 190M10190 10390l-190 190"/></g></g><g fill-opacity="0" stroke="#000" stroke-linecap="round" stroke-linejoin="round" stroke-width="0"><g fill="none" stroke-width="60"><path d="M5930 30v500h500l-500 500-500-500h500M5590 1530l-40-30h-70l-80 30-40 40-30 50-20 100v70l20 90 30 50 40 50 80 20h40l70-20 30-30v-160h-100M5830 2000v-500l290 500v-500M6360 2000v-500h120l70 30 40 40 30 50 20 100v70l-20 90-30 50-40 50-70 20h-120"/></g></g><g fill-opacity="0" stroke="#000" stroke-linecap="round" stroke-linejoin="round" stroke-width="0"><rect width="2000" height="800" x="55500" y="31100" fill="none" stroke-width="100" rx="0" transform="translate(-52570 -22970)"/><g fill="none" stroke-width="60"><path d="M4930 8530h500M2930 8530h-500M3840 6700l-160-240M3560 6700v-500h190l40 30 30 20 20 50v70l-20 50-30 20-40 20h-190M4030 6250l30-20 40-30h120l50 30 20 20 30 50v40l-30 80-280 280h310M3830 7610h-290M3690 7610v-500l-50 70-50 50-50 20M4140 7110h50l40 30 30 20 20 50 30 90v120l-30 100-20 40-30 30-40 20h-50l-50-20-20-30-30-40-20-100v-120l20-90 30-50 20-20 50-30"/></g></g><g fill-opacity="0" stroke="#000" stroke-linecap="round" stroke-linejoin="round" stroke-width="0"><rect width="2000" height="800" x="55500" y="28100" fill="none" stroke-width="100" rx="0" transform="translate(-52570 -22970)"/><g fill="none" stroke-width="60"><path d="M4930 5530h500M2930 5530h-500M3840 3700l-160-240M3560 3700v-500h190l40 30 30 20 20 50v70l-20 50-30 20-40 20h-190M4320 3700h-290M4180 3700v-500l-50 70-50 50-50 20M3830 4610h-290M3690 4610v-500l-50 70-50 50-50 20M4140 4110h50l40 30 30 20 20 50 30 90v120l-30 100-20 40-30 30-40 20h-50l-50-20-20-30-30-40-20-100v-120l20-90 30-50 20-20 50-30"/></g></g><g fill-opacity="0" stroke="#000" stroke-linecap="round" stroke-linejoin="round" stroke-width="0"><rect width="1000" height="5000" x="63000" y="24000" fill="none" stroke-width="100" rx="0" transform="translate(-52570 -22970)"/><g fill="none" stroke-width="60" transform="translate(-52570 -22970)"><rect width="500" height="100" x="63000" y="28450" rx="0"/><rect width="500" height="100" x="63000" y="27450" rx="0"/><rect width="500" height="100" x="63000" y="25450" rx="0"/><rect width="500" height="100" x="63000" y="24450" rx="0"/></g><rect width="1000" height="5000" x="63000" y="24000" fill="none" stroke-width="100" rx="0" transform="translate(-52570 -22970)"/><g fill="none" stroke-width="60" transform="translate(-52570 -22970)"><rect width="500" height="100" x="63000" y="26450" rx="0"/><path d="M63000 24500h-1500M62390 24370h-290M62250 24370v-500l-50 70-50 50-50 20M63000 25500h-1500M62100 24920l30-20 40-30h120l50 30 20 20 30 50v40l-30 80-280 280h310M63000 26500h-1500M62080 25870h310l-170 190h70l50 30 20 20 30 50v120l-30 40-20 30-50 20h-140l-50-20-20-30M63000 27500h-1500M62340 27040v330M62220 26850l-120 350h310M63000 28500h-1500M62360 27870h-230l-30 240 30-20 40-30h120l50 30 20 20 30 50v120l-30 40-20 30-50 20h-120l-40-20-30-30"/></g></g><g fill-opacity="0" stroke="#000" stroke-linecap="round" stroke-linejoin="round" stroke-width="0"><g fill-opacity="1" stroke-width="60" transform="translate(-52570 -22970)"><rect width="1800" height="100" x="52600" y="26800" rx="0"/><rect width="1200" height="200" x="52880" y="27030" rx="0"/></g><g fill="none" stroke-width="60"><path d="M930 4230v300M930 3830v-300"/></g><g fill="none" stroke-width="100"><path d="M1130 3180h400M1330 2980v400"/></g><g fill="none" stroke-width="60"><path d="M930 3530V2530M930 4530v1000"/></g></g><g fill-opacity="0" stroke="#000" stroke-linecap="round" stroke-linejoin="round" stroke-width="0"><g fill-opacity="1" stroke-width="60" transform="translate(-52570 -22970)"><rect width="1800" height="100" x="52600" y="29800" rx="0"/><rect width="1200" height="200" x="52880" y="30030" rx="0"/></g><g fill="none" stroke-width="60"><path d="M930 7230v300M930 6830v-300"/></g><g fill="none" stroke-width="100"><path d="M1130 6180h400M1330 5980v400"/></g><g fill="none" stroke-width="60"><path d="M930 6530V5530M930 7530v1000"/></g></g><g fill-opacity="0" stroke="#000" stroke-linecap="round" stroke-linejoin="round" stroke-width="0"><g fill-opacity="1" stroke-width="60" transform="translate(-52570 -22970)"><rect width="1800" height="100" x="52600" y="32800" rx="0"/><rect width="1200" height="200" x="52880" y="33030" rx="0"/></g><g fill="none" stroke-width="60"><path d="M930 10230v300M930 9830v-300"/></g><g fill="none" stroke-width="100"><path d="M1130 9180h400M1330 8980v400"/></g><g fill="none" stroke-width="60"><path d="M930 9530V8530M930 10530v1000"/></g></g><g fill="none" fill-opacity="0" stroke="#000" stroke-linecap="round" stroke-linejoin="round" stroke-width="60"><path d="M6930 1530h2000M7930 8530V5530M930 2530h8000M6930 3530h2000M7430 4530h1500M7930 5530h1000M7430 4530v4000M6930 3530v2000M6930 1530V30M930 12030v-500M5930 30h1000M7430 8530H5430M5430 5530h1500M930 12030h7000M7930 12030v-500M2430 8530H930M930 5530h1500M7860 2350l-20 30-80 20h-40l-70-20-50-50-30-50-20-90v-70l20-100 30-50 50-40 70-30h40l80 30 20 20M8030 1900h310l-170 190h70l50 30 20 20 30 50v120l-30 40-20 30-50 20h-140l-50-20-20-30M8550 2210h380M8740 2400v-380M8500 4900h290M8650 5400v-500M7860 4350l-20 30-80 20h-40l-70-20-50-50-30-50-20-90v-70l20-100 30-50 50-40 70-30h40l80 30 20 20M8340 4400h-290M8190 4400v-500l-40 70-50 50-50 20M8550 4210h380M8740 4400v-380M7860 3350l-20 30-80 20h-40l-70-20-50-50-30-50-20-90v-70l20-100 30-50 50-40 70-30h40l80 30 20 20M8050 2950l20-20 50-30h120l50 30 20 20 30 50v40l-30 80-280 280h310M8550 3210h380M8740 3400v-380M7860 1350l-20 30-80 20h-40l-70-20-50-50-30-50-20-90v-70l20-100 30-50 50-40 70-30h40l80 30 20 20M8340 1400h-290M8190 1400V900l-40 70-50 50-50 20M8550 1210h380"/></g><circle cx="53500" cy="31500" r="200" stroke="#000" stroke-linecap="round" stroke-linejoin="round" stroke-width="100" transform="translate(-52570 -22970)"/><circle cx="53500" cy="28500" r="200" stroke="#000" stroke-linecap="round" stroke-linejoin="round" stroke-width="100" transform="translate(-52570 -22970)"/><circle cx="53500" cy="35000" r="200" stroke="#000" stroke-linecap="round" stroke-linejoin="round" stroke-width="100" transform="translate(-52570 -22970)"/></svg>
