<svg xmlns="http://www.w3.org/2000/svg" width="96.768" height="126.212" viewBox="0 0 25.603 33.394">
  <rect width="5.08" height="2.032" x="134.62" y="59.944" rx="0" style="fill:none;stroke:#000;stroke-width:.254;stroke-linecap:round;stroke-linejoin:round;stroke-opacity:1" transform="translate(-126.924 -48.941)"/>
  <g style="fill:none;stroke:#000;stroke-width:.1524;stroke-linecap:round;stroke-linejoin:round;stroke-opacity:1">
    <path d="M7.696 12.019h-1.27m6.35 0h1.27"/>
    <path d="m10.024 7.438-.423-.605m-.303.605v-1.27m0 0h.484m0 0 .121.06m0 .001.06.06m.001 0 .06.12m0 0v.182m0 0-.06.121m0 0-.06.06m-.001.001-.12.06m-.001 0h-.483m1.935.605h-.726m.363 0v-1.27m0 0-.121.181m0 0-.121.121m0 0-.12.06m-.424 3.332h-.726m.363 0v-1.27m0 0-.121.182m0 0-.121.12m0 .001-.12.06m1.269.907v-1.27m.121.787.363.483m0-.846-.484.483" class="stroked-text"/>
  </g>
  <g style="fill:#000;fill-opacity:1;stroke:#000;stroke-width:.1524;stroke-linecap:round;stroke-linejoin:round;stroke-opacity:1" transform="translate(-126.924 -48.941)">
    <rect width="4.572" height=".254" x="128.524" y="71.882" rx="0"/>
    <rect width="3.048" height=".508" x="129.286" y="72.644" rx="0"/>
    <path d="M130.81 72.898v.762m0-1.778v-.762" style="fill:none;stroke:#000;stroke-width:.1524;stroke-linecap:round;stroke-linejoin:round;stroke-opacity:1"/>
    <path d="M131.572 70.612h1.016m-.508-.508v1.016" style="fill:none;stroke:#000;stroke-width:.254;stroke-linecap:round;stroke-linejoin:round;stroke-opacity:1"/>
  </g>
  <path d="M3.886 22.179v-2.54m0 5.08v2.54" style="fill:none;stroke:#000;stroke-width:.1524;stroke-linecap:round;stroke-linejoin:round;stroke-opacity:1"/>
  <g style="fill:#000;fill-opacity:1;stroke:#000;stroke-width:.1524;stroke-linecap:round;stroke-linejoin:round;stroke-opacity:1" transform="translate(-126.924 -48.941)">
    <rect width="4.572" height=".254" x="128.524" y="64.262" rx="0"/>
    <rect width="3.048" height=".508" x="129.286" y="65.024" rx="0"/>
    <path d="M130.81 65.278v.762m0-1.778V63.5" style="fill:none;stroke:#000;stroke-width:.1524;stroke-linecap:round;stroke-linejoin:round;stroke-opacity:1"/>
    <path d="M131.572 62.992h1.016m-.508-.508V63.5" style="fill:none;stroke:#000;stroke-width:.254;stroke-linecap:round;stroke-linejoin:round;stroke-opacity:1"/>
  </g>
  <g style="fill:none;stroke:#000;stroke-width:.1524;stroke-linecap:round;stroke-linejoin:round;stroke-opacity:1" transform="translate(-126.924 -48.941)">
    <path d="M130.81 63.5v-2.54m0 5.08v2.54"/>
    <path d="M130.81 77.47v1.27h1.27l-1.27 1.27-1.27-1.27h1.27" style="fill:none;stroke:#000;stroke-width:.1524;stroke-linecap:round;stroke-linejoin:round;stroke-opacity:1"/>
    <path d="M130.81 77.47v0"/>
    <path d="m129.842 80.973-.12-.06m-.001 0h-.181m0 0-.181.06m0 0-.121.121m0 0-.06.121m-.001 0-.06.242m0 0v.181m0 0 .06.242m0 0 .06.121m.001 0 .12.121m.001 0 .181.06m0 .001h.12m0 0 .182-.06m0-.001.06-.06m.001 0v-.424m0 0h-.242m.786.545v-1.27m0 0 .726 1.27m0 0v-1.27m.605 1.27v-1.27m0 0h.302m0 0 .181.06m0 0 .121.121m0 0 .06.121m.001 0 .06.242m0 0v.181m0 0-.06.242m0 0-.06.121m-.001 0-.12.121m-.001 0-.181.06m0 .001h-.302" class="stroked-text"/>
    <rect width="1.27" height=".254" x="149.86" y="60.833" rx="0"/>
    <rect width="1.27" height=".254" x="149.86" y="58.293" rx="0"/>
    <rect width="1.27" height=".254" x="149.86" y="55.753" rx="0"/>
    <rect width="1.27" height=".254" x="149.86" y="53.213" rx="0"/>
    <rect width="1.27" height=".254" x="149.86" y="50.673" rx="0"/>
  </g>
  <rect width="2.54" height="12.7" x="149.86" y="49.53" rx="0" style="fill:none;stroke:#000;stroke-width:.254;stroke-linecap:round;stroke-linejoin:round;stroke-opacity:1" transform="translate(-126.924 -48.941)"/>
  <g style="fill:none;stroke:#000;stroke-width:.1524;stroke-linecap:round;stroke-linejoin:round;stroke-opacity:1">
    <path d="M22.936 1.859h-3.81"/>
    <path d="M21.394 1.442h-.726m.363 0V.172m0-.001-.12.182m-.001 0-.12.12m-.001.001-.12.06" class="stroked-text"/>
    <path d="M22.936 4.399h-3.81"/>
    <path d="m20.668 2.832.06-.06m.001 0 .12-.06m.001 0h.302m0 0 .12.06m.001 0 .06.06m0 0 .06.121m.001 0v.121m0 0-.06.182m-.001 0-.725.726m0-.001h.786" class="stroked-text"/>
    <path d="M22.936 6.939h-3.81"/>
    <path d="M20.608 5.252h.786m0 0-.424.483m0 0h.182m0 0 .12.06m.001.001.06.06m0 0 .06.121m.001 0v.303m0-.001-.06.122m-.001 0-.06.06m0 0-.121.06m0 0h-.363m0 0-.12-.06m-.001 0-.06-.06" class="stroked-text"/>
    <path d="M22.936 9.479h-3.81"/>
    <path d="M21.273 8.215v.847m-.303-1.331-.302.907m0 .001h.786" class="stroked-text"/>
    <path d="M22.936 12.019h-3.81"/>
    <path d="M21.333 10.332h-.604m0 0-.06.604m-.001 0 .06-.06m.001 0 .12-.06m.001-.001h.302m0 0 .12.06m.001.001.06.06m0 0 .06.121m.001 0v.303m0-.001-.06.122m-.001 0-.06.06m0 0-.121.06m0 0h-.302m0 0-.121-.06m0 0-.06-.06" class="stroked-text"/>
  </g>
  <rect width="5.08" height="2.032" x="134.62" y="67.564" rx="0" style="fill:none;stroke:#000;stroke-width:.254;stroke-linecap:round;stroke-linejoin:round;stroke-opacity:1" transform="translate(-126.924 -48.941)"/>
  <g style="fill:none;stroke:#000;stroke-width:.1524;stroke-linecap:round;stroke-linejoin:round;stroke-opacity:1">
    <path d="M7.696 19.639h-1.27m6.35 0h1.27"/>
    <path d="m10.024 15.058-.423-.605m-.303.605v-1.27m0 0h.484m0 0 .121.06m0 .001.06.06m.001 0 .06.12m0 0v.182m0 0-.06.121m0 0-.06.06m-.001.001-.12.06m-.001 0h-.483m1.209-.544.06-.06m.001 0 .12-.061m0 0h.303m0 0 .12.06m.001.001.06.06m0 0 .06.12m.001 0v.122m0 0-.06.181m-.001 0-.725.726m0 0h.786m-1.149 2.424h-.726m.363 0v-1.27m0 0-.121.182m0 0-.121.12m0 .001-.12.06m1.269.907v-1.27m.121.787.363.483m0-.846-.484.483" class="stroked-text"/>
    <path d="M13.538 21.29a.181.181 0 0 0-.126-.259m.126.259a.258.258 0 0 0 .254.257m-.254-.892a.258.258 0 0 0 .254.262m0 .627a.255.255 0 0 0 .26-.254m-.26-.381a.569.569 0 0 0 .631-.257m-.631-.251a.258.258 0 0 0-.254.254m.508 0a.25.25 0 0 0-.254-.246"/>
  </g>
  <g style="fill:none;stroke:#000;stroke-width:.254;stroke-linecap:round;stroke-linejoin:round;stroke-opacity:1" transform="translate(-126.924 -48.941)">
    <rect width="2.032" height="5.08" x="142.494" y="69.85" rx="0"/>
    <path d="M140.97 70.231v-.635m.762.254v1.016l3.556 3.048v1.016" style="fill:none;stroke:#000;stroke-width:.1524;stroke-linecap:round;stroke-linejoin:round;stroke-opacity:1"/>
    <path d="M140.97 76.073v-2.286l-.254.762h.508l-.254-.762v.254m.762-.254v2.286l-.254-.762h.508l-.254.762v-.254" style="fill:#000;fill-opacity:1;fill-rule:evenodd;stroke:#000;stroke-width:.1524;stroke-linecap:round;stroke-linejoin:round;stroke-opacity:1"/>
  </g>
  <g style="fill:none;stroke:#000;stroke-width:.1524;stroke-linecap:round;stroke-linejoin:round;stroke-opacity:1">
    <path d="M16.586 20.909v-1.27m0 6.35v1.27"/>
    <path d="M19.231 21.864h.726m-.363 1.27v-1.27m.786 1.27v-1.27m0 .605h.726m0 .665v-1.27m1.27 1.27h-.726m.363 0v-1.27m0 0-.12.181m-.001 0-.12.121m-.001 0-.12.06m-1.573 3.333h-.726m.363 0v-1.27m0 0-.121.18m0 0-.121.122m0-.001-.12.061m1.511-.362h.12m.001 0 .12.06m.001 0 .06.06m0 0 .06.121m0 0 .061.242m0 0v.302m0 0-.06.242m-.001 0-.06.121m0 0-.06.06m0 .001-.121.06m0 .001h-.121m0 0-.121-.061m0 0-.06-.06m0-.001-.061-.12m0-.001-.06-.242m0 0v-.302m0 0 .06-.242m0 0 .06-.12m.001-.001.06-.06m0 0 .12-.06m.969 1.27v-1.27m.12.785.363.484m.001-.846-.485.483" class="stroked-text"/>
  </g>
  <g style="fill:#000;fill-opacity:1;stroke:#000;stroke-width:.1524;stroke-linecap:round;stroke-linejoin:round;stroke-opacity:1" transform="translate(-126.924 -48.941)">
    <rect width="4.572" height=".254" x="128.524" y="56.642" rx="0"/>
    <rect width="3.048" height=".508" x="129.286" y="57.404" rx="0"/>
    <path d="M130.81 57.658v.762m0-1.778v-.762" style="fill:none;stroke:#000;stroke-width:.1524;stroke-linecap:round;stroke-linejoin:round;stroke-opacity:1"/>
    <path d="M131.572 55.372h1.016m-.508-.508v1.016" style="fill:none;stroke:#000;stroke-width:.254;stroke-linecap:round;stroke-linejoin:round;stroke-opacity:1"/>
  </g>
  <path d="M3.886 6.939v-2.54m0 5.08v2.54" style="fill:none;stroke:#000;stroke-width:.1524;stroke-linecap:round;stroke-linejoin:round;stroke-opacity:1"/>
  <path d="m142.926 50.166-.06.06m-.001.001-.181.06m0 0h-.12m-.001 0-.181-.06m0 0-.121-.121m-.001 0-.06-.121m0 0-.06-.242m0 0v-.181m0 0 .06-.242m0 0 .06-.121m0 0 .122-.121m0 0 .181-.06m0-.001h.121m0 0 .181.06m0 .001.06.06m1.211 1.149h-.726m.363 0v-1.27m0 0-.121.182m0 0-.121.12m-.001.001-.12.06m1.27.423h.967m-2.721 5.443-.06.06m-.001.001-.181.06m0 0h-.12m-.001 0-.181-.06m0 0-.121-.121m-.001 0-.06-.121m0 0-.06-.242m0 0v-.181m0 0 .06-.242m0 0 .06-.121m0 0 .122-.121m0 0 .181-.06m0-.001h.121m0 0 .181.06m0 .001.06.06m.485 0 .06-.06m0 0 .121-.06m0-.001h.303m0 0 .12.06m0 .001.061.06m0 0 .06.121m.001.001v.12m0 0-.061.181m0 .001-.726.725m.001 0h.786m.544-.484h.967m-.484.484V54.4m-2.237 3.386-.06.06m-.001.001-.181.06m0 0h-.12m-.001 0-.181-.06m0 0-.121-.121m-.001 0-.06-.121m0 0-.06-.242m0 0v-.181m0-.001.06-.241m0 0 .06-.121m0 0 .122-.121m0 0 .181-.06m0-.001h.121m0 0 .181.06m0 .001.06.06m1.211 1.149h-.726m.363 0v-1.27m0 0-.121.182m0 0-.121.12m-.001.001-.12.06m1.27.423h.967m-.484.484v-.967m-.06 2.237h.726m-.363 1.27v-1.27" class="stroked-text" style="fill:none;stroke:#000;stroke-width:.1524;stroke-linecap:round;stroke-linejoin:round;stroke-opacity:1" transform="translate(-126.924 -48.941)"/>
  <g style="fill:none;stroke:#000;stroke-width:.1524;stroke-linecap:round;stroke-linejoin:round;stroke-opacity:1">
    <path d="m15.889 3.765-.06.06m0 .001-.181.06m-.001 0h-.12m-.001 0-.18-.06m0 0-.122-.121m0 0-.06-.121m0 0-.06-.242m-.001 0v-.181m0 0 .06-.242m.001 0 .06-.121m0 0 .121-.121m.001 0 .18-.06m0-.001h.122m-.001 0 .182.06m0 .001.06.06m.424-.121h.786m0 0-.423.484m0 0h.181m0 0 .121.06m0 .001.06.06m.001 0 .06.12m0 .001v.302m0 0-.06.121m0 0-.061.06m0 .001-.12.06m-.001 0h-.363m0 0-.12-.06m-.001 0-.06-.06m1.33-.364h.968m-.484.484v-.967" class="stroked-text"/>
    <path d="M.076 1.859h19.05m0 2.54H3.886m2.54 7.62h-2.54m12.7 16.51v-1.27m-12.7 1.27h12.7M.076 1.859v26.67m3.81 0v-1.27m2.54-7.62h-2.54m-3.81 8.89h3.81m11.43-19.05h3.81m-2.54 2.54h2.54m-5.08 0v-5.08m0 0h5.08m-2.54 12.7v-7.62m-2.54 7.62h1.27m0 0V9.479"/>
    <path d="M19.231 21.864h.726m-.363 1.27v-1.27m.786 1.27v-1.27m0 .605h.726m0 .665v-1.27m1.27 1.27h-.726m.363 0v-1.27m0 0-.12.181m-.001 0-.12.121m-.001 0-.12.06m-1.573 3.333h-.726m.363 0v-1.27m0 0-.121.18m0 0-.121.122m0-.001-.12.061m1.511-.362h.12m.001 0 .12.06m.001 0 .06.06m0 0 .06.121m0 0 .061.242m0 0v.302m0 0-.06.242m-.001 0-.06.121m0 0-.06.06m0 .001-.121.06m0 .001h-.121m0 0-.121-.061m0 0-.06-.06m0-.001-.061-.12m0-.001-.06-.242m0 0v-.302m0 0 .06-.242m0 0 .06-.12m.001-.001.06-.06m0 0 .12-.06m.969 1.27v-1.27m.12.785.363.484m.001-.846-.485.483" class="stroked-text"/>
    <path d="M16.586 20.909v-1.27m0 6.35v1.27"/>
    <path d="m10.024 15.058-.423-.605m-.303.605v-1.27m0 0h.484m0 0 .121.06m0 .001.06.06m.001 0 .06.12m0 0v.182m0 0-.06.121m0 0-.06.06m-.001.001-.12.06m-.001 0h-.483m1.209-.544.06-.06m.001 0 .12-.061m0 0h.303m0 0 .12.06m.001.001.06.06m0 0 .06.12m.001 0v.122m0 0-.06.181m-.001 0-.725.726m0 0h.786m-1.149 2.424h-.726m.363 0v-1.27m0 0-.121.182m0 0-.121.12m0 .001-.12.06m1.269.907v-1.27m.121.787.363.483m0-.846-.484.483" class="stroked-text"/>
    <path d="M7.696 19.639h-1.27m6.35 0h1.27m-10.16-5.08v-2.54m0 5.08v2.54m0 2.54v-2.54m0 5.08v2.54m0-20.32v-2.54m0 5.08v2.54"/>
  </g>
  <g style="fill:#000;fill-opacity:1;stroke:#000;stroke-width:.1524;stroke-linecap:round;stroke-linejoin:round;stroke-opacity:1" transform="translate(-126.924 -48.941)">
    <circle cx="130.81" cy="68.58" r=".457"/>
    <circle cx="130.81" cy="77.47" r=".457"/>
    <circle cx="130.81" cy="60.96" r=".457"/>
  </g>
</svg>

