<svg xmlns="http://www.w3.org/2000/svg" width="570" height="422.84" viewBox="0 0 47140.42 34970.21"><g stroke-linecap="round" stroke-linejoin="round"><g fill-opacity="0" stroke="#000" stroke-width="0"><g fill="none" stroke="#840000" stroke-width="60" transform="translate(-30890 -20059.79)"><circle r="250" cy="21500" cx="33250"/><path d="M34000 21500h-500z"/></g><g fill="none" stroke="#008484" stroke-width="60"><path d="M530 1450.21H290v-500M700 1450.21v-500M940 1450.21v-500l280 500v-500M1460 1190.21h170M1700 1450.21h-240v-500h240"/></g></g><g fill="#008484" fill-opacity="0" stroke="#008484" stroke-width="0"><g fill="none" stroke="#840000" stroke-width="60" transform="translate(-30890 -20059.79)"><circle r="250" cy="27500" cx="33250"/><path d="M34000 27500h-500z"/></g><g stroke-width="60" fill="none"><path d="M30 7450.21v-500l290 500v-500M560 7190.21h160M800 7450.21H560v-500h240M1010 6950.21v410l20 40 30 30 50 20h90l50-20 20-30 30-40v-410M1460 6950.21h290M1600 7450.21v-500"/></g></g><g fill="#008484" fill-opacity="0" stroke="#008484" stroke-width="0"><path d="M4760 4980.21v410l30 40 20 30 50 20h90l50-20 20-30 30-40v-410" fill="none" stroke="#840000" stroke-width="60"/><rect rx="0" height="2000" width="800" y="23500" x="36100" fill="none" stroke="#840000" stroke-width="100" transform="translate(-30890 -20059.79)"/><g fill="none" stroke="#840000" stroke-width="60"><path d="M4860 3440.21v500l1500 1000M5610 3440.21v-500M5610 5440.21v500"/></g><g stroke-width="60" fill="none"><path d="M6880 4180.21h50l40 30 30 20 20 50 30 90v120l-30 100-20 40-30 30-40 20h-50l-50-20-20-30-30-40-20-100v-120l20-90 30-50 20-20 50-30M7210 4180.21h340l-220 500M7740 4680.21v-500M8020 4680.21l-210-280M8020 4180.21l-280 290M8210 4230.21l30-20 40-30h120l50 30 20 20 30 50v40l-30 80-280 280h310M8660 4180.21h340l-220 500M9450 4680.21h-290M9310 4680.21v-500l-50 70-50 50-50 20"/></g></g><g fill="#008484" fill-opacity="0" stroke="#008484" stroke-width="0"><rect rx="0" height="800" width="2000" y="21100" x="40500" fill="none" stroke="#840000" stroke-width="100" transform="translate(-30890 -20059.79)"/><g fill="none" stroke="#840000" stroke-width="60"><path d="M11610 1440.21h500M9610 1440.21h-500"/></g><g stroke-width="60" fill="none"><path d="M10510 530.21h-290M10370 530.21v-500l-50 70-50 50-50 20M10820 30.21h50l40 30 30 20 20 50 30 90v120l-30 100-20 40-30 30-40 20h-50l-50-20-20-30-30-40-20-100v-120l20-90 30-50 20-20 50-30"/></g></g><g fill="#008484" fill-opacity="0" stroke="#008484" stroke-width="0"><g fill="none" stroke="#840000" stroke-width="60"><path d="M9610 7440.61a250 250 0 0 0 500 0M10110 7440.61a250 250 0 0 0 500 0M10610 7440.61a250 250 0 0 0 500 0M11110 7440.61a250 250 0 0 0 500 0M9510 7840.21h200zM9910 7840.21h200zM10310 7840.21h200zM10710 7840.21h200zM11110 7840.21h200zM11510 7840.21h200zM9710 8040.21h-200zM10110 8040.21h-200zM10510 8040.21h-200zM10910 8040.21h-200zM11310 8040.21h-200zM11710 8040.21h-200zM11610 7440.21h500M9610 7440.21h-500"/></g><g stroke-width="60" fill="none"><path d="M10370 6460.21v330M10250 6270.21l-120 350h310M10630 6790.21v-330M10630 6510.21l20-30 50-20h70l50 20 20 50v260M10840 6530.21l30-50 40-20h80l40 20 30 50v260"/></g></g><g fill="#008484" fill-opacity="0" stroke="#008484" stroke-width="0"><rect rx="0" height="800" width="2000" y="29600" x="40500" fill="none" stroke="#840000" stroke-width="100" transform="translate(-30890 -20059.79)"/><g fill="none" stroke="#840000" stroke-width="60"><path d="M11610 9940.21h500M9610 9940.21h-500"/></g><g stroke-width="60" fill="none"><path d="M10160 8530.21h-230l-30 240 30-20 40-30h120l50 30 20 20 30 50v120l-30 40-20 30-50 20h-120l-40-20-30-30M10400 8980.21l30 30-30 20-20-20 20-30v50M10620 8580.21l20-20 50-30h120l50 30 20 20 20 50v40l-20 80-290 280h310M11120 9030.21v-500M11160 8840.21l150 190M11310 8700.21l-190 190"/></g></g><g fill="#008484" fill-opacity="0" stroke="#008484" stroke-width="0"><g fill="#840000" fill-opacity="1" stroke="#840000" stroke-width="60" transform="translate(-30890 -20059.79)"><circle r="100" cy="24500" cx="46500"/><circle r="100" cy="26500" cx="48500"/><circle r="100" cy="22500" cx="48500"/><circle r="100" cy="24500" cx="50500"/></g><g fill="none" stroke="#840000" stroke-width="60"><path d="M16610 2940.21l500 500zM17110 5440.21l-500 500zM18610 4940.21l500 500zM18610 3940.21l500-500zM16110 3440.21l500 500 250-750zM16610 4940.21l-500 500 750 250zM18110 3440.21l500-500 250 750zM18860 5190.21l-750 250 500 500z"/><path d="M15610 4440.21l2000 2000 2000-2000-2000-2000zM19610 4440.21h1000"/></g><g stroke-width="60" fill="none"><path d="M19910 4120.21h390M20110 4310.21v-380"/></g><g fill="none" stroke="#840000" stroke-width="60"><path d="M20250 5010.21h-290M20110 5010.21v-500l-50 70-50 50-50 20M15610 4440.21h-1000"/></g><path d="M14910 4120.21h390" fill="none" stroke-width="60"/><g fill="none" stroke="#840000" stroke-width="60"><path d="M14960 4560.21l30-20 40-30h120l50 30 20 20 30 50v40l-30 80-280 280h310M17610 2440.21v-1000"/></g><path d="M17290 2070.21l-20-30-30-50 50-90-20-50-30-20" fill="none" stroke-width="60"/><g fill="none" stroke="#840000" stroke-width="60"><path d="M17680 2100.21v-310l190 170v-70l30-50 20-20 50-30h120l40 30 30 20 20 50v140l-20 50-30 20M17610 6440.21v1000"/></g><path d="M17290 7070.21l-20-30-30-50 50-90-20-50-30-20" fill="none" stroke-width="60"/><g fill="none" stroke="#840000" stroke-width="60"><path d="M17850 6840.21h330M17660 6960.21l350 120v-310"/></g><g stroke-width="60" fill="none"><path d="M18750 2680.21v-500l170 360 160-360v500M19320 2680.21v-500l170 360 160-360v500M20060 2420.21l70 20 20 30 30 40v80l-30 40-20 30-50 20h-190v-500h170l50 30 20 20 20 50v40l-20 50-20 30-50 20h-170M20650 2680.21h-280M20510 2680.21v-500l-50 70-40 50-50 20M20960 2180.21h50l50 30 20 20 30 50 20 90v120l-20 100-30 40-20 30-50 20h-50l-40-20-30-30-20-40-30-100v-120l30-90 20-50 30-20 40-30M21440 2180.21h50l40 30 30 20 20 50 30 90v120l-30 100-20 40-30 30-40 20h-50l-50-20-20-30-30-40-20-100v-120l20-90 30-50 20-20 50-30"/></g></g><g fill="none" fill-opacity="0" stroke="#008400" stroke-width="60"><path d="M3110 1440.21h2500M3110 7440.21h2500M5610 2940.21v-1500"/></g><circle r="200" cy="21500" cx="36500" fill="#008400" stroke="#008400" stroke-width="100" transform="translate(-30890 -20059.79)"/><g fill="none" fill-opacity="0" stroke="#008400" stroke-width="60"><path d="M5610 1440.21h3500M5610 5940.21v1500"/></g><circle r="200" cy="27500" cx="36500" fill="#008400" stroke="#008400" stroke-width="100" transform="translate(-30890 -20059.79)"/><g fill="none" fill-opacity="0" stroke="#008400" stroke-width="60"><path d="M5610 7440.21h3500M12110 1440.21h5500M12110 7440.21h5500"/></g><g fill="#008400" fill-opacity="0" stroke="#008400" stroke-width="0"><g fill="none" stroke="#840000" stroke-width="60"><path d="M23110 4440.61a250 250 0 0 0 500 0M23610 4440.61a250 250 0 0 0 500 0M24110 4440.61a250 250 0 0 0 500 0M24610 4440.61a250 250 0 0 0 500 0M23010 4840.21h200zM23410 4840.21h200zM23810 4840.21h200zM24210 4840.21h200zM24610 4840.21h200zM25010 4840.21h200zM23210 5040.21h-200zM23610 5040.21h-200zM24010 5040.21h-200zM24410 5040.21h-200zM24810 5040.21h-200zM25210 5040.21h-200zM25110 4440.21h500M23110 4440.21h-500"/></g><g fill="none" stroke="#008484" stroke-width="60"><path d="M23870 3460.21v330M23750 3270.21l-120 350h310M24130 3790.21v-330M24130 3510.21l20-30 50-20h70l50 20 20 50v260M24340 3530.21l30-50 40-20h80l40 20 30 50v260"/></g></g><path d="M20610 4440.21h1000" fill="none" fill-opacity="0" stroke="#008400" stroke-width="60"/><g fill="#008400" fill-opacity="0" stroke="#008400" stroke-width="0"><g fill="none" stroke="#840000" stroke-width="200"><path d="M20810 6240.21h1600zM20810 5640.21h1600z"/></g><g fill="none" stroke="#840000" stroke-width="60"><path d="M21610 5540.21v-1100M21610 6340.21v1100"/></g><g fill="none" stroke="#008484" stroke-width="60"><path d="M22880 5730.21l20-20 50-30h120l50 30 20 20 20 50v40l-20 80-290 280h310M23350 5730.21l30-20 50-30h110l50 30 30 20 20 50v40l-20 80-290 280h310M23850 5850.21v330M23850 5900.21l30-30 50-20h70l40 20 30 50v260"/></g></g><g fill="none" fill-opacity="0" stroke="#008400" stroke-width="60"><path d="M14110 5440.21v-1000M14110 4440.21h500"/></g><g fill="#008400" fill-opacity="0" stroke="#008400" stroke-width="0"><path d="M14110 5440.21v500h500l-500 500-500-500h500z" fill="none" stroke="#840000" stroke-width="60"/></g><g fill="#840000" fill-opacity="0" stroke="#840000" stroke-width="0"><path d="M21610 7440.21v500h500l-500 500-500-500h500z" fill="none" stroke-width="60"/></g><path d="M21610 4440.21h1000" fill="none" fill-opacity="0" stroke="#008400" stroke-width="60"/><circle r="200" cy="24500" cx="52500" fill="#008400" stroke="#008400" stroke-width="100" transform="translate(-30890 -20059.79)"/><path d="M26610 4440.21h-1000" fill="none" fill-opacity="0" stroke="#008400" stroke-width="60"/><g fill="none" fill-opacity="0" stroke="#840000" stroke-width="60"><path d="M26850 4470.21h390M27040 4660.21v-380"/></g><path d="M26610 4440.21v440h850l250-440-250-440h-850z" fill="none" fill-opacity="0" stroke="#840000" stroke-width="100"/><g fill="#840000" fill-opacity="0" stroke="#840000" stroke-width="0"><rect rx="0" height="800" width="2000" y="31100" x="35500" fill="none" stroke-width="100" transform="translate(-30890 -20059.79)"/><g stroke-width="60" fill="none"><path d="M6610 11440.21h500M4610 11440.21h-500"/></g><g fill="none" stroke="#008484" stroke-width="60"><path d="M5550 10530.21h-290M5400 10530.21v-500l-40 70-50 50-50 20M5760 10530.21v-500M5810 10340.21l140 190M5950 10200.21l-190 190"/></g></g><g fill="#008484" fill-opacity="0" stroke="#008484" stroke-width="0"><rect rx="0" height="800" width="2000" y="33100" x="35500" fill="none" stroke="#840000" stroke-width="100" transform="translate(-30890 -20059.79)"/><g fill="none" stroke="#840000" stroke-width="60"><path d="M6610 13440.21h500M4610 13440.21h-500"/></g><g stroke-width="60" fill="none"><path d="M5550 12530.21h-290M5400 12530.21v-500l-40 70-50 50-50 20M5760 12530.21v-500M5810 12340.21l140 190M5950 12200.21l-190 190"/></g></g><g fill="#008484" fill-opacity="0" stroke="#008484" stroke-width="0"><rect rx="0" height="800" width="2000" y="35100" x="35500" fill="none" stroke="#840000" stroke-width="100" transform="translate(-30890 -20059.79)"/><g fill="none" stroke="#840000" stroke-width="60"><path d="M6610 15440.21h500M4610 15440.21h-500"/></g><g stroke-width="60" fill="none"><path d="M5550 14530.21h-290M5400 14530.21v-500l-40 70-50 50-50 20M5760 14530.21v-500M5810 14340.21l140 190M5950 14200.21l-190 190"/></g></g><g fill="none" fill-opacity="0" stroke="#840000" stroke-width="60"><path d="M1270 13470.21h380M1460 13660.21v-380"/></g><path d="M2110 13440.21l-250-440h-850v880h850z" fill="none" fill-opacity="0" stroke="#840000" stroke-width="100"/><g fill="none" fill-opacity="0" stroke="#008400" stroke-width="60"><path d="M4110 11440.21h-500M3610 11440.21v2000M3610 15440.21h500M4110 13440.21h-500"/></g><circle r="200" cy="33500" cx="34500" fill="#008400" stroke="#008400" stroke-width="100" transform="translate(-30890 -20059.79)"/><g fill="none" fill-opacity="0" stroke="#008400" stroke-width="60"><path d="M3610 13440.21v2000M3610 13440.21H2110M7110 11440.21h500M7610 11440.21v2000M7610 13440.21h-500M7610 13440.21v2000M7610 15440.21h-500"/></g><circle r="200" cy="33500" cx="38500" fill="#008400" stroke="#008400" stroke-width="100" transform="translate(-30890 -20059.79)"/><g fill="#008400" stroke="#008400" stroke-width="0"><g fill="none" fill-opacity="0" stroke="#840000" stroke-width="200"><path d="M6810 17740.21h1600zM6810 17140.21h1600z"/></g><g fill="none" fill-opacity="0" stroke="#840000" stroke-width="60"><path d="M7610 17040.21v-1100M7610 17840.21v1100"/></g><g fill="none" fill-opacity="0" stroke="#008484" stroke-width="60"><path d="M8880 17230.21l20-20 50-30h120l50 30 20 20 30 50v40l-30 80-280 280h310M9360 17230.21l20-20 50-30h120l40 30 30 20 20 50v40l-20 80-290 280h310M9950 17180.21h50l50 30 20 20 20 50 30 90v120l-30 100-20 40-20 30-50 20h-50l-50-20-20-30-20-40-30-100v-120l30-90 20-50 20-20 50-30M10330 17350.21v330M10330 17400.21l30-30 40-20h80l40 20 30 50v260"/></g></g><g fill="#008484" fill-opacity="0" stroke="#008484" stroke-width="0"><path d="M7610 18940.21v500h500l-500 500-500-500h500z" fill="none" stroke="#840000" stroke-width="60"/></g><path d="M7610 15940.21v-500" fill="none" fill-opacity="0" stroke="#008400" stroke-width="60"/><circle r="200" cy="35500" cx="38500" fill="#008400" stroke="#008400" stroke-width="100" transform="translate(-30890 -20059.79)"/><g fill="none" fill-opacity="0" stroke="#840000" stroke-width="60"><path d="M10270 13470.21h380M10460 13660.21v-380"/></g><path d="M11110 13440.21l-250-440h-850v880h850z" fill="none" fill-opacity="0" stroke="#840000" stroke-width="100"/><g fill="#840000" fill-opacity="0" stroke="#840000" stroke-width="0"><rect rx="0" height="800" width="2000" y="33100" x="42500" fill="none" stroke-width="100" transform="translate(-30890 -20059.79)"/><g stroke-width="60" fill="none"><path d="M13610 13440.21h500M11610 13440.21h-500"/></g><g fill="none" stroke="#008484" stroke-width="60"><path d="M11780 12080.21l30-20 50-30h110l50 30 30 20 20 50v40l-20 80-290 280h310M12380 12030.21h50l40 30 30 20 20 50 30 90v120l-30 100-20 40-30 30-40 20h-50l-50-20-20-30-30-40-20-100v-120l20-90 30-50 20-20 50-30M12860 12030.21h40l50 30 20 20 30 50 20 90v120l-20 100-30 40-20 30-50 20h-40l-50-20-30-30-20-40-20-100v-120l20-90 20-50 30-20 50-30M13240 12530.21v-500M13280 12340.21l150 190M13430 12200.21l-190 190"/></g></g><g fill="#008484" fill-opacity="0" stroke="#008484" stroke-width="0"><rect rx="0" height="800" width="2000" y="33100" x="45500" fill="none" stroke="#840000" stroke-width="100" transform="translate(-30890 -20059.79)"/><g fill="none" stroke="#840000" stroke-width="60"><path d="M16610 13440.21h500M14610 13440.21h-500"/></g><g stroke-width="60" fill="none"><path d="M14780 12080.21l30-20 50-30h110l50 30 30 20 20 50v40l-20 80-290 280h310M15380 12030.21h50l40 30 30 20 20 50 30 90v120l-30 100-20 40-30 30-40 20h-50l-50-20-20-30-30-40-20-100v-120l20-90 30-50 20-20 50-30M15860 12030.21h40l50 30 20 20 30 50 20 90v120l-20 100-30 40-20 30-50 20h-40l-50-20-30-30-20-40-20-100v-120l20-90 20-50 30-20 50-30M16240 12530.21v-500M16280 12340.21l150 190M16430 12200.21l-190 190"/></g></g><g fill="#008484" fill-opacity="0" stroke="#008484" stroke-width="0"><rect rx="0" height="800" width="2000" y="33100" x="48500" fill="none" stroke="#840000" stroke-width="100" transform="translate(-30890 -20059.79)"/><g fill="none" stroke="#840000" stroke-width="60"><path d="M19610 13440.21h500M17610 13440.21h-500"/></g><g stroke-width="60" fill="none"><path d="M17990 12080.21l20-20 50-30h120l40 30 30 20 20 50v40l-20 80-290 280h310M18580 12030.21h50l50 30 20 20 20 50 30 90v120l-30 100-20 40-20 30-50 20h-50l-50-20-20-30-20-40-30-100v-120l30-90 20-50 20-20 50-30M19060 12030.21h50l40 30 30 20 20 50 20 90v120l-20 100-20 40-30 30-40 20h-50l-50-20-20-30-30-40-20-100v-120l20-90 30-50 20-20 50-30"/></g></g><g fill="#008484" fill-opacity="0" stroke="#008484" stroke-width="0"><path d="M35110 13440.21h-1000z" fill="none" stroke="#840000" stroke-width="60"/><g fill="none" stroke="#840000" stroke-width="80"><path d="M34110 13940.21v-1000h200"/><path d="M35110 13940.21v-1000l-1000 500z"/></g><g fill="none" stroke="#840000" stroke-width="60"><path d="M34110 13440.21h-1000M35110 13440.21h1000"/></g><g stroke-width="60" fill="none"><path d="M33950 11940.21h330l-330 500h330M34470 12440.21v-500h120l70 30 50 40 30 50 20 100v70l-20 90-30 50-50 50-70 20h-120M35240 12440.21h-290M35090 12440.21v-500l-40 70-50 50-50 20"/></g></g><g fill="#008484" fill-opacity="0" stroke="#008484" stroke-width="0"><g fill="none" stroke="#840000" stroke-width="200"><path d="M36310 16240.21h1600zM36310 15640.21h1600z"/></g><g fill="none" stroke="#840000" stroke-width="60"><path d="M37110 15540.21v-1100M37110 16340.21v1100"/></g><g stroke-width="60" fill="none"><path d="M38690 16130.21l-20 30-70 20h-50l-70-20-50-50-20-50-30-90v-70l30-100 20-50 50-40 70-30h50l70 30 20 20M39120 15850.21v330M39000 15660.21l-120 350h310"/></g></g><g fill="#008484" fill-opacity="0" stroke="#008484" stroke-width="0"><path d="M40110 13940.21v-1000z" fill="none" stroke="#840000" stroke-width="80"/><path d="M39110 13440.21h1000z" fill="none" stroke="#840000" stroke-width="60"/><path d="M39110 13940.21v-1000l1000 500z" fill="none" stroke="#840000" stroke-width="80"/><g fill="none" stroke="#840000" stroke-width="60"><path d="M40110 13440.21h1000M39110 13440.21h-1000"/></g><g stroke-width="60" fill="none"><path d="M39240 12390.21v-500h120l70 30 40 40 30 50 20 100v70l-20 90-30 50-40 50-70 20h-120M40000 12390.21h-290M39860 12390.21v-500l-50 70-50 50-50 20"/></g></g><g fill="#008484" fill-opacity="0" stroke="#008484" stroke-width="0"><g fill="none" stroke="#840000" stroke-width="60"><path d="M42110.4 16940.21a250 250 0 0 0 0-500M42110.4 16440.21a250 250 0 0 0 0-500M42110.4 15940.21a250 250 0 0 0 0-500M42110.4 15440.21a250 250 0 0 0 0-500M42510 17040.21v-200zM42510 16640.21v-200zM42510 16240.21v-200zM42510 15840.21v-200zM42510 15440.21v-200zM42510 15040.21v-200zM42710 16840.21v200zM42710 16440.21v200zM42710 16040.21v200zM42710 15640.21v200zM42710 15240.21v200zM42710 14840.21v200zM42110 14940.21v-500M42110 16940.21v500"/></g><g stroke-width="60" fill="none"><path d="M43060 15680.21h290M43210 16180.21v-500"/></g></g><path d="M42110 14440.21v-1000" fill="none" fill-opacity="0" stroke="#008400" stroke-width="60"/><g fill="#008400" fill-opacity="0" stroke="#008400" stroke-width="0"><path d="M39610 18440.21v500h500l-500 500-500-500h500z" fill="none" stroke="#840000" stroke-width="60"/></g><g fill="none" fill-opacity="0" stroke="#008400" stroke-width="60"><path d="M36110 13440.21h1000M9110 7440.21v2500"/></g><circle r="200" cy="27500" cx="40000" fill="#008400" stroke="#008400" stroke-width="100" transform="translate(-30890 -20059.79)"/><path d="M12110 7440.21v2500" fill="none" fill-opacity="0" stroke="#008400" stroke-width="60"/><circle r="200" cy="27500" cx="43000" fill="#008400" stroke="#008400" stroke-width="100" transform="translate(-30890 -20059.79)"/><path d="M37110 14440.21v-1000" fill="none" fill-opacity="0" stroke="#008400" stroke-width="60"/><circle r="200" cy="33500" cx="68000" fill="#008400" stroke="#008400" stroke-width="100" transform="translate(-30890 -20059.79)"/><g fill="none" fill-opacity="0" stroke="#008400" stroke-width="60"><path d="M37110 13440.21h1000M37110 17440.21v1000M42110 17440.21v1000M41110 13440.21h1000"/></g><circle r="200" cy="33500" cx="73000" fill="#008400" stroke="#008400" stroke-width="100" transform="translate(-30890 -20059.79)"/><path d="M42110 13440.21h1000" fill="none" fill-opacity="0" stroke="#008400" stroke-width="60"/><circle r="200" cy="38500" cx="70500" fill="#008400" stroke="#008400" stroke-width="100" transform="translate(-30890 -20059.79)"/><g fill="none" fill-opacity="0" stroke="#008400" stroke-width="60"><path d="M39610 18440.21h2500M37110 18440.21h2500"/></g><g fill="#008400" fill-opacity="0" stroke="#008400" stroke-width="0"><g fill="none" stroke="#840000" stroke-width="200"><path d="M44310 12640.21v1600zM44910 12640.21v1600z"/></g><g fill="none" stroke="#840000" stroke-width="60"><path d="M45010 13440.21h1100M44210 13440.21h-1100"/></g><g fill="none" stroke="#008484" stroke-width="60"><path d="M44520 12030.21l-20 30-70 20h-50l-70-20-50-50-20-50-30-90v-70l30-100 20-50 50-40 70-30h50l70 30 20 20M44970 11580.21h-230l-30 240 30-20 40-30h120l50 30 20 20 30 50v120l-30 40-20 30-50 20h-120l-40-20-30-30"/></g></g><g fill="none" fill-opacity="0" stroke="#008400" stroke-width="60"><path d="M47110 10940.21v2500M47110 13440.21h-1000"/></g><g fill="#008400" fill-opacity="0" stroke="#008400" stroke-width="0"><circle r="1110" cy="37500" cx="63500" fill="none" stroke="#840000" stroke-width="100" transform="translate(-30890 -20059.79)"/><g fill="none" stroke="#840000" stroke-width="60"><path d="M32360 17190.21l750-750zM32360 17690.21l750 750h0z"/></g><path d="M32360 16690.21v1500h0z" fill="none" stroke="#840000" stroke-width="200"/><path d="M33010 18140.21l-200 200-200-400z" fill-rule="evenodd" fill="#840000" fill-opacity="1" stroke="#840000" stroke-width="60"/><g fill="none" stroke="#840000" stroke-width="60"><path d="M32360 17440.21h-2250M31370 18010.21h-290M31230 18010.21v-500l-50 70-50 50-50 20M33110 18440.21v1000M33230 19080.21l-20-30-30-40v-120l30-50 20-20 50-30h40l80 30 280 280v-310M33110 16440.21v-1000M33180 16100.21v-310l190 170v-70l30-50 20-20 50-30h120l40 30 30 20 20 50v140l-20 50-30 20"/></g><g fill="none" stroke="#008484" stroke-width="60"><path d="M34320 17420.21l70 20 20 30 30 40v80l-30 40-20 30-50 20h-190v-500h170l50 30 20 20 20 50v40l-20 50-20 30-50 20h-170M34940 17630.21l-30 30-70 20h-40l-80-20-40-50-30-50-20-90v-70l20-100 30-50 40-40 80-30h40l70 30 30 20M35100 17180.21l120 500 100-360 90 360 120-500M35940 17180.21h-100l-40 30-30 20-50 70-20 100v190l20 40 30 30 50 20h90l50-20 20-30 30-40v-120l-30-50-20-20-50-30h-90l-50 30-30 20-20 50M36220 17680.21h100l50-20 20-30 50-70 20-90v-190l-20-50-30-20-40-30h-100l-50 30-20 20-20 50v120l20 40 20 30 50 20h100l40-20 30-30 20-40"/></g></g><path d="M33110 15440.21v-2000" fill="none" fill-opacity="0" stroke="#008400" stroke-width="60"/><g fill="#008400" fill-opacity="0" stroke="#008400" stroke-width="0"><path d="M33110 19440.21v500h500l-500 500-500-500h500z" fill="none" stroke="#840000" stroke-width="60"/></g><g fill="#840000" fill-opacity="0" stroke="#840000" stroke-width="0"><rect rx="0" height="2000" width="800" y="38000" x="60600" fill="none" stroke-width="100" transform="translate(-30890 -20059.79)"/><g stroke-width="60" fill="none"><path d="M30110 17940.21v-500M30110 19940.21v500"/></g><g fill="none" stroke="#008484" stroke-width="60"><path d="M27990 18730.21l20-20 50-30h120l40 30 30 20 20 50v40l-20 80-290 280h310M28700 18850.21v330M28580 18660.21l-120 350h310M29060 18680.21h50l40 30 30 20 20 50 20 90v120l-20 100-20 40-30 30-40 20h-50l-50-20-20-30-30-40-20-100v-120l20-90 30-50 20-20 50-30"/></g></g><g fill="#008484" fill-opacity="0" stroke="#008484" stroke-width="0"><rect rx="0" height="2000" width="800" y="42000" x="62600" fill="none" stroke="#840000" stroke-width="100" transform="translate(-30890 -20059.79)"/><g fill="none" stroke="#840000" stroke-width="60"><path d="M32110 21940.21v-500M32110 23940.21v500"/></g><g stroke-width="60" fill="none"><path d="M32930 22730.21l20-20 50-30h120l40 30 30 20 20 50v40l-20 80-290 280h310M33430 23130.21l20 30-20 20-30-20 30-30v50M33620 22680.21h330l-220 500"/></g></g><path d="M30110 20440.21v500" fill="none" fill-opacity="0" stroke="#008400" stroke-width="60"/><circle r="200" cy="41000" cx="61000" fill="#008400" stroke="#008400" stroke-width="100" transform="translate(-30890 -20059.79)"/><path d="M30110 25440.21v-500" fill="none" fill-opacity="0" stroke="#008400" stroke-width="60"/><circle r="200" cy="45000" cx="61000" fill="#008400" stroke="#008400" stroke-width="100" transform="translate(-30890 -20059.79)"/><g fill="#008400" stroke="#008400" stroke-width="0"><path d="M30110 25440.21v500h500l-500 500-500-500h500z" fill="none" fill-opacity="0" stroke="#840000" stroke-width="60"/></g><circle r="200" cy="33500" cx="64000" fill="#008400" stroke="#008400" stroke-width="100" transform="translate(-30890 -20059.79)"/><path d="M17110 13440.21v-2500" fill="none" fill-opacity="0" stroke="#008400" stroke-width="60"/><g fill="#008400" fill-opacity="0" stroke="#008400" stroke-width="0"><rect rx="0" height="2000" width="800" y="42000" x="58600" fill="none" stroke="#840000" stroke-width="100" transform="translate(-30890 -20059.79)"/><g fill="none" stroke="#840000" stroke-width="60"><path d="M28110 21940.21v-500M28110 23940.21v500"/></g><g fill="none" stroke="#008484" stroke-width="60"><path d="M28920 22730.21l30-20 50-30h120l40 30 30 20 20 50v40l-20 80-290 280h310M29420 23130.21l30 30-30 20-20-20 20-30v50M29620 22680.21h300l-160 190h70l50 30 20 20 20 50v120l-20 40-20 30-50 20h-140l-50-20-20-30M30120 22730.21l20-20 50-30h120l40 30 30 20 20 50v40l-20 80-290 280h310M30620 23180.21v-500M30660 22990.21l150 190M30810 22850.21l-190 190"/></g></g><g fill="none" fill-opacity="0" stroke="#008400" stroke-width="60"><path d="M32110 20940.21v500M30110 20940.21h2000M28110 21440.21v-500M28110 20940.21h2000M28110 24440.21v500M28110 24940.21h2000M32110 24940.21v-500M30110 24940.21h2000"/></g><circle r="200" cy="41000" cx="59000" fill="#008400" stroke="#008400" stroke-width="100" transform="translate(-30890 -20059.79)"/><circle r="200" cy="33500" cx="48000" fill="#008400" stroke="#008400" stroke-width="100" transform="translate(-30890 -20059.79)"/><g fill="none" fill-opacity="0" stroke="#008400" stroke-width="60"><path d="M17110 10940.21h30000M20110 13440.21h13000"/></g><g fill="#008400" fill-opacity="0" stroke="#008400" stroke-width="0"><path d="M23110 33940.21v500h500l-500 500-500-500h500z" fill="none" stroke="#840000" stroke-width="60"/></g><g fill="#840000" fill-opacity="0" stroke="#840000" stroke-width="0"><g stroke-width="200" fill="none"><path d="M22310 32740.21h1600zM22310 32140.21h1600z"/></g><g stroke-width="60" fill="none"><path d="M23110 32040.21v-1100M23110 32840.21v1100"/></g><g fill="none" stroke="#008484" stroke-width="60"><path d="M24360 32180.21h310l-170 190h70l50 30 20 20 30 50v120l-30 40-20 30-50 20h-140l-50-20-20-30M24980 32180.21h40l50 30 20 20 30 50 20 90v120l-20 100-30 40-20 30-50 20h-40l-50-20-30-30-20-40-20-100v-120l20-90 20-50 30-20 50-30M25450 32180.21h50l50 30 20 20 20 50 30 90v120l-30 100-20 40-20 30-50 20h-50l-50-20-20-30-20-40-30-100v-120l30-90 20-50 20-20 50-30M25830 32350.21v330M25830 32400.21l30-30 40-20h80l40 20 30 50v260"/></g></g><g fill="#008484" fill-opacity="0" stroke="#008484" stroke-width="0"><path d="M22610 29940.21h1000z" fill="none" stroke="#840000" stroke-width="80"/><path d="M23110 28940.21v1000z" fill="none" stroke="#840000" stroke-width="60"/><path d="M22610 28940.21h1000l-500 1000z" fill="none" stroke="#840000" stroke-width="80"/><g fill="none" stroke="#840000" stroke-width="60"><path d="M23110 29940.21v1000M23110 28940.21v-1000"/></g><g stroke-width="60" fill="none"><path d="M24040 29370.21h160M24280 29630.21h-240v-500h240M24470 29610.21l70 20h120l40-20 30-30 20-40v-50l-20-50-30-20-40-30-100-20-50-20-20-30-20-50v-40l20-50 20-20 50-30h120l70 30M24940 29180.21l30-20 40-30h120l50 30 20 20 30 50v40l-30 80-280 280h310M25580 29130.21v360l-20 70-50 50-70 20h-50M25800 29490.21h240M25750 29630.21l170-500 160 500"/></g></g><g fill="none" fill-opacity="0" stroke="#840000" stroke-width="60"><path d="M18770 27970.21h380M18960 28160.21v-380"/></g><path d="M19610 27940.21l-250-440h-850v880h850z" fill="none" fill-opacity="0" stroke="#840000" stroke-width="100"/><g fill="#840000" fill-opacity="0" stroke="#840000" stroke-width="0"><g stroke-width="60" fill="none"><path d="M23110.4 27440.21a250 250 0 0 0 0-500M23110.4 26940.21a250 250 0 0 0 0-500M23110.4 26440.21a250 250 0 0 0 0-500M23110.4 25940.21a250 250 0 0 0 0-500M23510 27540.21v-200zM23510 27140.21v-200zM23510 26740.21v-200zM23510 26340.21v-200zM23510 25940.21v-200zM23510 25540.21v-200zM23710 27340.21v200zM23710 26940.21v200zM23710 26540.21v200zM23710 26140.21v200zM23710 25740.21v200zM23710 25340.21v200zM23110 25440.21v-500M23110 27440.21v500"/></g><g fill="none" stroke="#008484" stroke-width="60"><path d="M24060 26180.21h290M24210 26680.21v-500"/></g></g><g fill="#008484" fill-opacity="0" stroke="#008484" stroke-width="0"><circle r="1110" cy="43000" cx="53500" fill="none" stroke="#840000" stroke-width="100" transform="translate(-30890 -20059.79)"/><g fill="none" stroke="#840000" stroke-width="60"><path d="M22360 22690.21l750-750zM22360 23190.21l750 750h0z"/></g><path d="M22360 22190.21v1500h0z" fill="none" stroke="#840000" stroke-width="200"/><path d="M22610 23640.21l200-200 200 400z" fill-rule="evenodd" fill="#840000" fill-opacity="1" stroke="#840000" stroke-width="60"/><g fill="none" stroke="#840000" stroke-width="60"><path d="M22360 22940.21h-2250M21370 23510.21h-290M21230 23510.21v-500l-50 70-50 50-50 20M23110 23940.21v1000M23230 24580.21l-20-30-30-40v-120l30-50 20-20 50-30h40l80 30 280 280v-310M23110 21940.21v-1000M23180 21600.21v-310l190 170v-70l30-50 20-20 50-30h120l40 30 30 20 20 50v140l-20 50-30 20"/></g><g stroke-width="60" fill="none"><path d="M24420 23180.21h-290M24270 23180.21v-500l-40 70-50 50-50 20M24580 22680.21h310l-160 190h70l40 30 30 20 20 50v120l-20 40-30 30-40 20h-150l-40-20-30-30M25200 22680.21h50l50 30 20 20 20 50 30 90v120l-30 100-20 40-20 30-50 20h-50l-50-20-20-30-20-40-30-100v-120l30-90 20-50 20-20 50-30M25680 22680.21h50l40 30 30 20 20 50 20 90v120l-20 100-20 40-30 30-40 20h-50l-50-20-20-30-30-40-20-100v-120l20-90 30-50 20-20 50-30M26300 22680.21h-240l-30 240 30-20 50-30h120l40 30 30 20 20 50v120l-20 40-30 30-40 20h-120l-50-20-30-30M26530 23180.21v-500h120l80 30 40 40 30 50 20 100v70l-20 90-30 50-40 50-80 20h-120"/></g></g><circle r="200" cy="33500" cx="51000" fill="#008400" stroke="#008400" stroke-width="100" transform="translate(-30890 -20059.79)"/><g fill="none" fill-opacity="0" stroke="#008400" stroke-width="60"><path d="M20110 22940.21v-9500M23110 20940.21h5000M19610 27940.21h3500"/></g><circle r="200" cy="48000" cx="54000" fill="#008400" stroke="#008400" stroke-width="100" transform="translate(-30890 -20059.79)"/><g fill="none" fill-opacity="0" stroke="#008400" stroke-width="60"><path d="M23110 27940.21h4500M23110 30940.21h4500"/></g><circle r="200" cy="51000" cx="54000" fill="#008400" stroke="#008400" stroke-width="100" transform="translate(-30890 -20059.79)"/><g fill="#008400" stroke="#008400" stroke-width="0"><rect rx="0" height="2000" width="800" y="48500" x="58100" fill="none" fill-opacity="0" stroke="#840000" stroke-width="100" transform="translate(-30890 -20059.79)"/><g fill="none" fill-opacity="0" stroke="#840000" stroke-width="60"><path d="M27610 28440.21v-500M27610 30440.21v500"/></g><g fill="none" fill-opacity="0" stroke="#008484" stroke-width="60"><path d="M28410 29180.21h310l-170 190h70l50 30 20 20 30 50v120l-30 40-20 30-50 20h-140l-50-20-20-30M29030 29180.21h40l50 30 30 20 20 50 20 90v120l-20 100-20 40-30 30-50 20h-40l-50-20-20-30-30-40-20-100v-120l20-90 30-50 20-20 50-30M29410 29680.21v-500M29460 29490.21l140 190M29600 29350.21l-190 190"/></g></g><circle r="200" cy="48000" cx="58500" fill="#008400" stroke="#008400" stroke-width="100" transform="translate(-30890 -20059.79)"/><path d="M27610 27940.21h3500" fill="none" fill-opacity="0" stroke="#008400" stroke-width="60"/><circle r="200" cy="51000" cx="58500" fill="#008400" stroke="#008400" stroke-width="100" transform="translate(-30890 -20059.79)"/><path d="M27610 30940.21h3500" fill="none" fill-opacity="0" stroke="#008400" stroke-width="60"/><g fill="#008400" fill-opacity="0" stroke="#008400" stroke-width="0"><rect rx="0" height="200" width="1800" y="49100" x="61100" fill="none" stroke="#840000" stroke-width="60" transform="translate(-30890 -20059.79)"/><rect rx="0" height="200" width="1800" y="49700" x="61100" fill="#840000" fill-opacity="1" stroke="#840000" stroke-width="60" transform="translate(-30890 -20059.79)"/><g fill="none" stroke="#840000" stroke-width="60"><path d="M30410 28540.21h400zM30610 28340.21v400zM31110 29040.21v-1100M31110 29840.21v1100"/></g><g fill="none" stroke="#008484" stroke-width="60"><path d="M32700 29680.21h-290M32550 29680.21v-500l-40 70-50 50-50 20M33010 29180.21h40l50 30 20 20 30 50 20 90v120l-20 100-30 40-20 30-50 20h-40l-50-20-30-30-20-40-20-100v-120l20-90 20-50 30-20 50-30M33480 29180.21h50l50 30 20 20 20 50 30 90v120l-30 100-20 40-20 30-50 20h-50l-50-20-20-30-20-40-30-100v-120l30-90 20-50 20-20 50-30M34080 29350.21v330M33860 29350.21v260l30 50 40 20h80l40-20 30-30"/></g></g><circle r="200" cy="48000" cx="62000" fill="#008400" stroke="#008400" stroke-width="100" transform="translate(-30890 -20059.79)"/><circle r="200" cy="51000" cx="62000" fill="#008400" stroke="#008400" stroke-width="100" transform="translate(-30890 -20059.79)"/><g fill="none" fill-opacity="0" stroke="#008400" stroke-width="60"><path d="M31110 30940.21h4000M31110 27940.21h4000"/></g><g fill="none" fill-opacity="0" stroke="#840000" stroke-width="60"><path d="M35450 27660.21h90l50 30 50 40 20 100v160l-20 100-50 50-50 20h-90l-50-20-50-50-20-100v-160l20-100 50-40 50-30M35880 27660.21v410l20 40 30 30 40 20h100l50-20 20-30 20-40v-410M36330 27660.21h290M36470 28160.21v-500M36780 27970.21h380M36970 28160.21v-380"/></g><path d="M35110 27940.21v440h2280l250-440-250-440h-2280z" fill="none" fill-opacity="0" stroke="#840000" stroke-width="100"/><g fill="none" fill-opacity="0" stroke="#840000" stroke-width="60"><path d="M35450 30660.21h90l50 30 50 40 20 100v160l-20 100-50 50-50 20h-90l-50-20-50-50-20-100v-160l20-100 50-40 50-30M35880 30660.21v410l20 40 30 30 40 20h100l50-20 20-30 20-40v-410M36330 30660.21h290M36470 31160.21v-500M36780 30970.21h380"/></g><path d="M35110 30940.21v440h2280l250-440-250-440h-2280z" fill="none" fill-opacity="0" stroke="#840000" stroke-width="100"/></g></svg>
