<svg xmlns="http://www.w3.org/2000/svg" viewBox="0 0 27376.2 20552"><g fill-opacity="0" stroke="#000" stroke-linecap="round" stroke-linejoin="round" stroke-width="60"><rect width="600" height="1400" x="34200" y="57800" fill="none" stroke-width="80" rx="0" transform="translate(-13450 -45966)"/><path fill="none" d="M21050 11834v-300m0 1700v300"/><path fill="none" d="M22052 12948h-286m143 0v-500l-48 72-47 47-48 24m595-143h48l47 24 24 24 24 48 24 95v119l-24 95-24 48-24 23-47 24h-48l-47-24-24-23-24-48-24-95v-119l24-95 24-48 24-24 47-24m381 500v-500m48 310 143 190m0-333-191 190" class="stroked-text"/></g><g fill-opacity="0" stroke="#000" stroke-linecap="round" stroke-linejoin="round" stroke-width="60"><path fill="none" stroke-width="130" d="M2950 3234h1200"/><path fill="none" stroke-width="120" d="M2950 2834h1200"/><path fill="none" d="M3550 2834v-800m0 1200v800"/><path fill="none" d="M4877 3451h-286m143 0v-500l-48 71-47 48-48 24m595-143h48l47 24 24 23 24 48 24 95v119l-24 96-24 47-24 24-47 24h-48l-47-24-24-24-24-47-24-96v-119l24-95 24-48 24-23 47-24m595 166v334m-214-334v262l24 48 48 24h71l48-24 23-24" class="stroked-text"/></g><g fill-opacity="0" stroke="#000" stroke-linecap="round" stroke-linejoin="round" stroke-width="60"><path fill="none" d="m3250 1534 300-500m0 1000V1034m0 0 300 500"/><path fill="none" d="M2700 339h380m-190 191V149m381-119h309l-166 190h71l48 24 24 24 23 47v119l-23 48-24 24-48 24h-143l-47-24-24-24m524 0 24 24-24 24-24-24 24-24v48m190-500h310l-167 190h72l47 24 24 24 24 47v119l-24 48-24 24-47 24h-143l-48-24-24-24m453-452 166 500 167-500" class="stroked-text"/></g><g fill-opacity="0" stroke="#000" stroke-linecap="round" stroke-linejoin="round" stroke-width="60"><path fill="none" stroke-width="130" d="M6450 3234h1200"/><path fill="none" stroke-width="120" d="M6450 2834h1200"/><path fill="none" d="M7050 2834v-800m0 1200v800"/><path fill="none" d="M8377 3451h-286m143 0v-500l-48 71-47 48-48 24m595-143h48l47 24 24 23 24 48 24 95v119l-24 96-24 47-24 24-47 24h-48l-47-24-24-24-24-47-24-96v-119l24-95 24-48 24-23 47-24m476 0h48l48 24 23 23 24 48 24 95v119l-24 96-24 47-23 24-48 24h-48l-47-24-24-24-24-47-24-96v-119l24-95 24-48 24-23 47-24m381 166v334m0-286 24-24 48-24h71l48 24 24 48v262" class="stroked-text"/></g><g fill-opacity="0" stroke="#000" stroke-linecap="round" stroke-linejoin="round" stroke-width="60"><g fill="none" transform="translate(-13450 -45966)"><rect width="500" height="100" x="14000" y="61450" rx="0"/><rect width="500" height="100" x="14000" y="60450" rx="0"/><rect width="500" height="100" x="14000" y="59450" rx="0"/><rect width="500" height="100" x="14000" y="58450" rx="0"/></g><rect width="1000" height="4000" x="13500" y="58000" fill="none" stroke-width="100" rx="0" transform="translate(-13450 -45966)"/><path fill="none" d="M1050 12534h1500"/><path fill="none" d="M1942 12410h-285m143 0v-500l-48 71-48 48-47 24" class="stroked-text"/><path fill="none" d="M1050 13534h1500"/><path fill="none" d="m1657 12957 23-23 48-24h119l48 24 24 23 23 48v48l-23 71-286 286h309" class="stroked-text"/><path fill="none" d="M1050 14534h1500"/><path fill="none" d="M1633 13910h309l-166 190h71l48 24 24 24 23 47v119l-23 48-24 24-48 24h-143l-47-24-24-24" class="stroked-text"/><path fill="none" d="M1050 15534h1500"/><path fill="none" d="M1895 15076v334m-119-524-119 357h309" class="stroked-text"/></g><g fill-opacity="0" stroke="#000" stroke-linecap="round" stroke-linejoin="round" stroke-width="60"><path fill="none" d="m2250 12034 300-500m0 1000v-1000m0 0 300 500"/><path fill="none" d="M1700 10839h380m-190 191v-381m381-119h309l-166 190h71l48 24 24 24 23 47v119l-23 48-24 24-48 24h-143l-47-24-24-24m524 0 24 24-24 24-24-24 24-24v48m190-500h310l-167 190h72l47 24 24 24 24 47v119l-24 48-24 24-47 24h-143l-48-24-24-24m453-452 166 500 167-500" class="stroked-text"/></g><g fill-opacity="0" stroke="#000" stroke-linecap="round" stroke-linejoin="round" stroke-width="60"><path fill="none" d="M2550 15534v500h500l-500 500-500-500h500"/><path fill="none" d="m2219 17014-48-24h-71l-72 24-48 47-23 48-24 95v71l24 96 23 47 48 48 72 24h47l72-24 23-24v-167h-95m310 215v-500l285 500v-500m238 500v-500h120l71 24 48 47 23 48 24 95v71l-24 96-23 47-48 48-71 24h-120" class="stroked-text"/></g><g fill-opacity="0" stroke="#000" stroke-linecap="round" stroke-linejoin="round" stroke-width="60"><path fill="none" d="M26550 8534v500h500l-500 500-500-500h500"/><path fill="none" d="m26219 10014-48-24h-71l-72 24-48 47-23 48-24 95v71l24 96 23 47 48 48 72 24h47l72-24 23-24v-167h-95m310 215v-500l285 500v-500m238 500v-500h120l71 24 48 47 23 48 24 95v71l-24 96-23 47-48 48-71 24h-120" class="stroked-text"/></g><g fill-opacity="0" stroke="#000" stroke-linecap="round" stroke-linejoin="round" stroke-width="60"><path fill="none" d="m20750 6034 300-500m0 1000V5534m0 0 300 500"/><path fill="none" d="M20200 4839h380m-190 191v-381m381-119h309l-166 190h71l48 24 24 24 23 47v119l-23 48-24 24-48 24h-143l-47-24-24-24m524 0 24 24-24 24-24-24 24-24v48m190-500h310l-167 190h72l47 24 24 24 24 47v119l-24 48-24 24-47 24h-143l-48-24-24-24m453-452 166 500 167-500" class="stroked-text"/></g><g fill-opacity="0" stroke="#000" stroke-linecap="round" stroke-linejoin="round" stroke-width="60"><path fill="none" d="m20750 11034 300-500m0 1000v-1000m0 0 300 500"/><path fill="none" d="M20200 9839h380m-190 191v-381m381-119h309l-166 190h71l48 24 24 24 23 47v119l-23 48-24 24-48 24h-143l-47-24-24-24m524 0 24 24-24 24-24-24 24-24v48m190-500h310l-167 190h72l47 24 24 24 24 47v119l-24 48-24 24-47 24h-143l-48-24-24-24m453-452 166 500 167-500" class="stroked-text"/></g><g fill-opacity="0" stroke="#000" stroke-linecap="round" stroke-linejoin="round" stroke-width="60" transform="translate(-13450 -45966)"><circle cx="37200" cy="54500" r="200" fill="none"/><path fill="none" d="M38000 54000v-700m1000 700h-2000"/><circle cx="38800" cy="54500" r="200" fill="none"/><path fill="none" d="M37000 54500h-1000m3000 0h1000"/><path fill="none" d="m37333 53083 71 24h119l48-24 24-24 24-48v-47l-24-48-24-24-48-24-95-23-48-24-23-24-24-48v-47l24-48 23-24 48-23h119l72 23m166-23 119 500 96-358 95 358 119-500m452 500h-286m143 0v-500l-47 71-48 48-48 23" class="stroked-text"/></g><g fill-opacity="0" stroke="#000" stroke-linecap="round" stroke-linejoin="round" stroke-width="60"><rect width="600" height="1400" x="34200" y="52800" fill="none" stroke-width="80" rx="0" transform="translate(-13450 -45966)"/><path fill="none" d="M21050 6834v-300m0 1700v300"/><path fill="none" d="M22052 7948h-286m143 0v-500l-48 72-47 47-48 24m595-143h48l47 24 24 24 24 48 24 95v119l-24 95-24 48-24 23-47 24h-48l-47-24-24-23-24-48-24-95v-119l24-95 24-48 24-24 47-24m381 500v-500m48 310 143 190m0-333-191 190" class="stroked-text"/></g><g fill-opacity="0" stroke="#000" stroke-linecap="round" stroke-linejoin="round" stroke-width="60"><path fill="none" d="M11050 18534v500h500l-500 500-500-500h500"/><path fill="none" d="m10719 20014-48-24h-71l-72 24-48 47-23 48-24 95v71l24 96 23 47 48 48 72 24h47l72-24 23-24v-167h-95m310 215v-500l285 500v-500m238 500v-500h120l71 24 48 47 23 48 24 95v71l-24 96-23 47-48 48-71 24h-120" class="stroked-text"/></g><g fill-opacity="0" stroke="#000" stroke-linecap="round" stroke-linejoin="round" stroke-width="60"><path fill="none" d="M21050 15534v500h500l-500 500-500-500h500"/><path fill="none" d="m20719 17014-48-24h-71l-72 24-48 47-23 48-24 95v71l24 96 23 47 48 48 72 24h47l72-24 23-24v-167h-95m310 215v-500l285 500v-500m238 500v-500h120l71 24 48 47 23 48 24 95v71l-24 96-23 47-48 48-71 24h-120" class="stroked-text"/></g><g fill-opacity="0" stroke="#000" stroke-linecap="round" stroke-linejoin="round" stroke-width="60"><path fill="none" stroke-width="130" d="M20450 14734h1200"/><path fill="none" stroke-width="120" d="M20450 14334h1200"/><path fill="none" d="M21050 14334v-800m0 1200v800"/><path fill="none" d="M22377 14951h-286m143 0v-500l-48 71-47 48-48 24m595-143h48l47 24 24 23 24 48 24 95v119l-24 96-24 47-24 24-47 24h-48l-47-24-24-24-24-47-24-96v-119l24-95 24-48 24-23 47-24m476 0h48l48 24 23 23 24 48 24 95v119l-24 96-24 47-23 24-48 24h-48l-47-24-24-24-24-47-24-96v-119l24-95 24-48 24-23 47-24m381 166v334m0-286 24-24 48-24h71l48 24 24 48v262" class="stroked-text"/></g><g fill-opacity="0" stroke="#000" stroke-linecap="round" stroke-linejoin="round" stroke-width="60"><path fill="none" d="M17550 15534v500h500l-500 500-500-500h500"/><path fill="none" d="m17219 17014-48-24h-71l-72 24-48 47-23 48-24 95v71l24 96 23 47 48 48 72 24h47l72-24 23-24v-167h-95m310 215v-500l285 500v-500m238 500v-500h120l71 24 48 47 23 48 24 95v71l-24 96-23 47-48 48-71 24h-120" class="stroked-text"/></g><g fill-opacity="0" stroke="#000" stroke-linecap="round" stroke-linejoin="round" stroke-width="60"><rect width="8000" height="10000" x="20500" y="53500" fill="none" stroke-width="100" rx="0" transform="translate(-13450 -45966)"/><path fill="none" d="M11050 7534V6534"/><path fill="none" d="m10776 9144 500-166-500-167m500-167h-500v-119l24-71 47-48 48-23 95-24h71l96 24 47 23 48 48 24 71v119m0-500h-500v-119l24-71 47-48 48-23 95-24h71l96 24 47 23 48 48 24 71v119m-350-1253v285m0-142h-500l71 47 48 48 24 47" class="stroked-text"/><path fill="none" d="M15050 10534h1000"/><path fill="none" d="M13700 10760v-500m334 0h95l48 24 47 47 24 95v167l-24 95-47 48-48 24h-95l-48-24-47-48-24-95v-167l24-95 47-47 48-24m643 166v334m-119-524-119 357h309m706-183h-285m142 0v-500l-47 71-48 48-47 24m595-143h47l48 24 24 23 24 48 23 95v119l-23 95-24 48-24 24-48 24h-47l-48-24-24-24-23-48-24-95v-119l24-95 23-48 24-23 48-24" class="stroked-text"/><path fill="none" d="M7050 13534H6050"/><path fill="none" d="m7684 13760-166-238m-119 238v-500h190l48 24 23 23 24 48v71l-24 48-23 24-48 24h-190m452-262 333 500m0-500-333 500m524 0v-500h119l71 24 48 47 24 48 23 95v71l-23 96-24 47-48 48-71 24h-119m-1921-350h-285m142 0v-500l-47 71-48 48-47 24m761 357h-285m143 0v-500l-48 71-48 48-47 24" class="stroked-text"/><path fill="none" d="M7050 14534H6050"/><path fill="none" d="M7327 14260h286m-143 500v-500m262 0 333 500m0-500-333 500m524 0v-500h119l71 24 48 47 24 48 23 95v71l-23 96-24 47-48 48-71 24h-119m-1802-350h-285m142 0v-500l-47 71-48 48-47 24m476-96 24-23 47-24h119l48 24 24 23 23 48v48l-23 71-286 286h309" class="stroked-text"/><path fill="none" d="M15050 11534h1000"/><path fill="none" d="M13700 11760v-500m334 0h95l48 24 47 47 24 95v167l-24 95-47 48-48 24h-95l-48-24-47-48-24-95v-167l24-95 47-47 48-24m666 0h-238l-23 238 23-24 48-24h119l48 24 23 24 24 47v119l-24 48-23 24-48 24h-119l-48-24-23-24m1015-302h-285m142 0v-500l-47 71-48 48-47 24m714 23v334m-119-524-119 357h309" class="stroked-text"/><path fill="none" d="M7050 9534H6050"/><path fill="none" d="m7684 9760-166-238m-119 238v-500h190l48 24 23 23 24 48v71l-24 48-23 24-48 24h-190m476 214 71 24h119l48-24 24-24 23-48v-47l-23-48-24-24-48-23-95-24-48-24-23-24-24-47v-48l24-48 23-23 48-24h119l71 24m143-24h286m-143 500v-500m-1992 150h-285m142 0v-500l-47 71-48 48-47 24m738-143h-238l-24 238 24-24 47-24h119l48 24 24 24 23 47v119l-23 48-24 24-48 24h-119l-47-24-24-24" class="stroked-text"/><path fill="none" d="M7050 11534H6050"/><path fill="none" d="M7327 11260h286m-143 500v-500m405 0h95l48 24 47 47 24 95v167l-24 95-47 48-48 24h-95l-48-24-47-48-24-95v-167l24-95 47-47 48-24m428 0v404l24 48 24 24 48 24h95l47-24 24-24 24-48v-404m167 0h285m-142 500v-500m-2445 150h-285m142 0v-500l-47 71-48 48-47 24m714-143h-95l-48 24-24 23-47 72-24 95v190l24 48 23 24 48 24h95l48-24 24-24 23-48v-119l-23-47-24-24-48-24h-95l-48 24-23 24-24 47" class="stroked-text"/><path fill="none" d="M15050 16534h1000"/><path fill="none" d="M13224 16760v-500m334 0h95l47 24 48 47 24 95v167l-24 95-48 48-47 24h-95l-48-24-48-48-23-95v-167l23-95 48-47 48-24m690 500h-286m143 0v-500l-47 71-48 48-48 24m715-143h-96l-47 24-24 23-48 72-23 95v190l23 48 24 24 48 24h95l48-24 23-24 24-48v-119l-24-47-23-24-48-24h-95l-48 24-24 24-23 47m1015-135h-285m142 0v-500l-47 71-48 48-47 24m452-143h333l-214 500" class="stroked-text"/><path fill="none" d="M7050 8534H6050"/><path fill="none" d="M7399 8498h166m72 262h-238v-500h238m214 500v-500l286 500v-500m-1730-303 23-23 48-24h119l48 24 24 23 23 48v48l-23 71-286 286h309" class="stroked-text"/><path fill="none" d="M15050 14534h1000"/><path fill="none" d="M13224 14760v-500m334 0h95l47 24 48 47 24 95v167l-24 95-48 48-47 24h-95l-48-24-48-48-23-95v-167l23-95 48-47 48-24m690 500h-286m143 0v-500l-47 71-48 48-48 24m715 23v334m-119-524-119 357h309m635-683h309l-166 190h71l48 24 24 24 23 47v119l-23 48-24 24-48 24h-143l-47-24-24-24" class="stroked-text"/><path fill="none" d="M15050 12534h1000"/><path fill="none" d="M13224 12760v-500m334 0h95l47 24 48 47 24 95v167l-24 95-48 48-47 24h-95l-48-24-48-48-23-95v-167l23-95 48-47 48-24m690 500h-286m143 0v-500l-47 71-48 48-48 24m477-96 23-23 48-24h119l48 24 23 23 24 48v48l-24 71-285 286h309m921-684v334m-119-524-119 357h309" class="stroked-text"/><path fill="none" d="M15050 13534h1000"/><path fill="none" d="M13224 13760v-500m334 0h95l47 24 48 47 24 95v167l-24 95-48 48-47 24h-95l-48-24-48-48-23-95v-167l23-95 48-47 48-24m690 500h-286m143 0v-500l-47 71-48 48-48 24m453-143h309l-166 190h71l48 24 23 24 24 47v119l-24 48-23 24-48 24h-143l-47-24-24-24m1254-802h-239l-23 238 23-24 48-24h119l48 24 24 24 23 47v119l-23 48-24 24-48 24h-119l-48-24-23-24" class="stroked-text"/><path fill="none" d="M15050 15534h1000"/><path fill="none" d="M13224 15760v-500m334 0h95l47 24 48 47 24 95v167l-24 95-48 48-47 24h-95l-48-24-48-48-23-95v-167l23-95 48-47 48-24m690 500h-286m143 0v-500l-47 71-48 48-48 24m738-143h-238l-23 238 23-24 48-24h119l48 24 23 24 24 47v119l-24 48-23 24-48 24h-119l-48-24-23-24m1206-802h-95l-48 24-24 23-48 72-23 95v190l23 48 24 24 48 24h95l48-24 24-24 23-48v-119l-23-47-24-24-48-24h-95l-48 24-24 24-23 47" class="stroked-text"/><path fill="none" d="M15050 9534h1000"/><path fill="none" d="M13700 9760v-500m334 0h95l48 24 47 47 24 95v167l-24 95-47 48-48 24h-95l-48-24-47-48-24-95v-167l24-95 47-47 48-24m405 47 23-23 48-24h119l48 24 23 23 24 48v48l-24 71-285 286h309m659-850h333l-214 500" class="stroked-text"/><path fill="none" d="M15050 8534h1000"/><path fill="none" d="M13700 8760v-500m334 0h95l48 24 47 47 24 95v167l-24 95-47 48-48 24h-95l-48-24-47-48-24-95v-167l24-95 47-47 48-24m524 0h47l48 24 24 23 23 48 24 95v119l-24 95-23 48-24 24-48 24h-47l-48-24-24-24-24-48-23-95v-119l23-95 24-48 24-23 48-24m944-136-48-24-24-24-23-47v-24l23-48 24-23 48-24h95l48 24 24 23 23 48v24l-23 47-24 24-48 24h-95l-48 24-24 24-23 47v95l23 48 24 24 48 24h95l48-24 24-24 23-48v-95l-23-47-24-24-48-24" class="stroked-text"/><path fill="none" d="M11050 17534v1000"/><path fill="none" d="m10800 16923-24 47v72l24 71 47 48 48 23 95 24h71l96-24 47-23 48-48 24-71v-48l-24-71-24-24h-167v95m215-310h-500l500-285h-500m500-238h-500v-119l24-72 47-47 48-24 95-24h71l96 24 47 24 48 47 24 72v119m-350 1968v-95l-24-48-24-24-71-48-96-23h-190l-48 23-23 24-24 48v95l24 48 23 24 48 23h119l48-23 23-24 24-48v-95l-24-48-23-24-48-23m1374 1107h166m72 262h-238v-500h238m190 476 72 24h119l47-24 24-24 24-48v-47l-24-48-24-24-47-23-95-24-48-24-24-24-24-47v-48l24-48 24-23 48-24h119l71 24m214 476v-500h191l47 24 24 23 24 48v71l-24 48-24 24-47 24h-191m500 47h381m191-309 119 500 95-357 95 357 119-500m477 500-167-238m-119 238v-500h190l48 24 24 23 24 48v71l-24 48-24 24-48 24h-190m595-262h95l48 24 48 47 23 95v167l-23 95-48 48-48 24h-95l-48-24-47-48-24-95v-167l24-95 47-47 48-24m524 0h95l48 24 47 47 24 95v167l-24 95-47 48-48 24h-95l-48-24-47-48-24-95v-167l24-95 47-47 48-24m428 500v-500l167 357 167-357v500m238-191h381m333-309h48l47 24 24 23 24 48 24 95v119l-24 95-24 48-24 24-47 24h-48l-47-24-24-24-24-48-24-95v-119l24-95 24-48 24-23 47-24m357 47 24-23 48-24h119l47 24 24 23 24 48v48l-24 71-285 286h309" class="stroked-text"/></g><g fill-opacity="0" stroke="#000" stroke-linecap="round" stroke-linejoin="round" stroke-width="60"><path fill="none" d="m10750 6034 300-500m0 1000V5534m0 0 300 500"/><path fill="none" d="M10200 4839h380m-190 191v-381m381-119h309l-166 190h71l48 24 24 24 23 47v119l-23 48-24 24-48 24h-143l-47-24-24-24m524 0 24 24-24 24-24-24 24-24v48m190-500h310l-167 190h72l47 24 24 24 24 47v119l-24 48-24 24-47 24h-143l-48-24-24-24m453-452 166 500 167-500" class="stroked-text"/></g><g fill-opacity="0" stroke="#000" stroke-linecap="round" stroke-linejoin="round" stroke-width="60"><path fill="none" d="M7050 4034v500h500l-500 500-500-500h500"/><path fill="none" d="m6719 5514-48-24h-71l-72 24-48 47-23 48-24 95v71l24 96 23 47 48 48 72 24h47l72-24 23-24v-167h-95m310 215v-500l285 500v-500m238 500v-500h120l71 24 48 47 23 48 24 95v71l-24 96-23 47-48 48-71 24h-120" class="stroked-text"/></g><path fill="none" stroke="#000" stroke-linecap="round" stroke-linejoin="round" stroke-width="60" d="M18199 13145h166m72 262h-238v-500h238m214 500v-500l286 500v-500m-560-4762 71 24 24 24 24 47v72l-24 48-24 23-48 24h-190v-500h167l47 24 24 24 24 47v48l-24 48-24 23-47 24h-167m595-238h95l48 24 48 48 24 95v166l-24 96-48 47-48 24h-95l-47-24-48-47-24-96v-166l24-95 48-48 47-24m524 0h95l48 24 48 48 23 95v166l-23 96-48 47-48 24h-95l-48-24-47-47-24-96v-166l24-95 47-48 48-24m357 0h286m-143 500v-500" class="stroked-text"/><g fill-opacity="0" stroke="#000" stroke-linecap="round" stroke-linejoin="round" stroke-width="60"><path fill="none" d="M3199 8145h166m72 262h-238v-500h238m214 500v-500l286 500v-500" class="stroked-text"/><path fill="none" d="M21050 8534h1500m-6500 7000h1500M3550 2034h3500M3550 4034h3500m-4500 9500h3500m0 1000H2550m3500-6000H3050m15000 5000h3000m-5000-5000h5000M5810 9294l480 480m0-480-480 480m10000-480 480 480m0-480-480 480m0 520 480 480m0-480-480 480m-10000 520 480 480m0-480-480 480m10000 2520 480 480m0-480-480 480m0-1480 480 480m0-480-480 480m0-2480 480 480m0-480-480 480m0 520 480 480m0-480-480 480m0 3520 480 480m0-480-480 480"/></g><g stroke="#000" stroke-linecap="round" stroke-linejoin="round" stroke-width="60" transform="translate(-13450 -45966)"><circle cx="34500" cy="59500" r="180"/><circle cx="34500" cy="54500" r="180"/><circle cx="20500" cy="50000" r="180"/><circle cx="17000" cy="48000" r="180"/></g></svg>
